<?xml version="1.0" encoding="UTF-8"?>
<svg version="1.1" xmlns="http://www.w3.org/2000/svg" width="512" height="512">
<path d="M0 0 C168.96 0 337.92 0 512 0 C512 168.96 512 337.92 512 512 C343.04 512 174.08 512 0 512 C0 343.04 0 174.08 0 0 Z " fill="#FDFDFD" transform="translate(0,0)"/>
<path d="M0 0 C2.43045893 1.04754664 4.32004626 2.20379091 6.4140625 3.80859375 C8.10775399 5.21201519 8.10775399 5.21201519 11 6 C13.15625583 5.27878844 13.15625583 5.27878844 15.375 4.125 C26.42645815 -1.30578528 42.06692576 -0.37732133 53.62109375 3.09375 C61.10674787 5.94542776 66.01245383 11.19834919 69.65625 18.16796875 C72.33299594 25.65318344 71.37833876 34.51980832 71.28491211 42.38500977 C70.76740132 52.53888206 70.76740132 52.53888206 74.9921875 61.3046875 C75.80405518 61.97927002 75.80405518 61.97927002 76.63232422 62.66748047 C78.39736363 64.38714936 78.56018534 65.64727643 78.8125 68.0625 C78.53168156 71.43232124 77.45866969 73.02904585 75 75.3125 C67.88515863 80.53479356 60.77623567 82.1183015 52 81 C46.93033006 79.56757248 42.56418301 77.98685856 39 74 C36.4039787 74.93745214 34.25476641 75.80276149 32.0625 77.5 C25.42699181 82.32582414 16.79930767 81.79584772 9 81 C2.61124254 78.8900417 -1.71467437 73.7180581 -5 68 C-6.97647567 62.33410309 -7.08212762 54.51691478 -5.328125 48.81640625 C-4.5 47.1875 -4.5 47.1875 -3 45 C-4.37285156 44.90912109 -4.37285156 44.90912109 -5.7734375 44.81640625 C-6.96195312 44.73261719 -8.15046875 44.64882813 -9.375 44.5625 C-10.55835938 44.48128906 -11.74171875 44.40007812 -12.9609375 44.31640625 C-16 44 -16 44 -18 43 C-18 48.94 -18 54.88 -18 61 C-17.01 61.33 -16.02 61.66 -15 62 C-12.5400867 65.02217919 -11.13150145 67.19455363 -10.5 71.0625 C-11.13437762 74.78946854 -12.30254251 76.37544677 -15 79 C-19.58012487 81.47993589 -24.02635756 81.29016605 -29.09765625 81.265625 C-29.96893661 81.26753845 -30.84021698 81.2694519 -31.73789978 81.27142334 C-33.57437429 81.27278076 -35.41085853 81.26911533 -37.24731445 81.26074219 C-40.05637143 81.25002339 -42.86479078 81.2606591 -45.67382812 81.2734375 C-47.46093891 81.27211608 -49.2480493 81.26955405 -51.03515625 81.265625 C-52.29308739 81.27169769 -52.29308739 81.27169769 -53.57643127 81.27789307 C-54.75301552 81.26843658 -54.75301552 81.26843658 -55.95336914 81.25878906 C-56.64000137 81.25719788 -57.32663361 81.25560669 -58.03407288 81.25396729 C-60 81 -60 81 -62.13816833 79.93035889 C-63.05977501 79.46983124 -63.05977501 79.46983124 -64 79 C-65.35122508 79.62961339 -66.68223758 80.30306067 -68 81 C-75.62822068 81.73976447 -82.65592792 81.350808 -89.81640625 78.55859375 C-93.66926618 77.57297842 -96.95799505 78.98826332 -100.71875 80.0390625 C-105.32421061 81.19906829 -109.76743519 81.36740359 -114.5 81.375 C-115.30308594 81.39949219 -116.10617187 81.42398438 -116.93359375 81.44921875 C-123.7751037 81.48248379 -129.00850915 79.74592071 -134.09375 75.078125 C-134.5578125 74.47484375 -135.021875 73.8715625 -135.5 73.25 C-136.22703125 72.32960938 -136.22703125 72.32960938 -136.96875 71.390625 C-137.3090625 70.93171875 -137.649375 70.4728125 -138 70 C-138.70962891 70.58007812 -138.70962891 70.58007812 -139.43359375 71.171875 C-149.91808938 79.42867078 -159.0778749 81.18884723 -172.1875 81.25 C-173.81655273 81.2809375 -173.81655273 81.2809375 -175.47851562 81.3125 C-184.4691525 81.35569826 -192.60795668 80.20481888 -200.125 74.9375 C-201.24261719 74.17759766 -201.24261719 74.17759766 -202.3828125 73.40234375 C-202.91648438 72.93957031 -203.45015625 72.47679687 -204 72 C-204 71.34 -204 70.68 -204 70 C-204.66 70 -205.32 70 -206 70 C-206.2475 70.598125 -206.495 71.19625 -206.75 71.8125 C-209.71875957 77.00782924 -215.16521472 78.45703199 -220.58056641 80.1796875 C-226.44469643 81.5864758 -232.18447888 81.57775095 -238.1875 81.5 C-239.39341797 81.51546875 -240.59933594 81.5309375 -241.84179688 81.546875 C-248.31364905 81.5185982 -253.37463094 81.03003358 -259.1262207 77.95507812 C-261.12767892 76.93492118 -262.76932468 76.29409331 -265 76 C-267.02613283 77.29327628 -269.02514795 78.6296945 -271 80 C-277.86514197 81.87338935 -287.24736038 82.50989114 -293.9375 79.8125 C-297.46888913 77.72249419 -300.72498629 75.47296954 -304 73 C-304 73.66 -304 74.32 -304 75 C-305.20556604 75.63032133 -306.41463189 76.2539497 -307.625 76.875 C-308.29789063 77.22304688 -308.97078125 77.57109375 -309.6640625 77.9296875 C-317.33827048 81.4459634 -326.41091099 83.07447782 -334.546875 80.0546875 C-339.6190363 77.02283168 -343.03780134 73.40549664 -345.25 67.875 C-346.74810002 60.13481657 -347.08460235 52.9833524 -343 46 C-337.21014493 38.40338164 -337.21014493 38.40338164 -333 37 C-333.66 35.948125 -334.32 34.89625 -335 33.8125 C-337.85839958 28.08549226 -337.80875868 22.25766816 -337 16 C-335.3125 12.5 -335.3125 12.5 -333 10 C-332.360625 9.13375 -331.72125 8.2675 -331.0625 7.375 C-322.84005407 0.99840928 -313.3316102 0.63075007 -303.3125 0.5625 C-302.35102051 0.5524292 -301.38954102 0.5423584 -300.39892578 0.53198242 C-291.45064297 0.64013499 -283.10076856 2.25175879 -276 8 C-273.75 10.625 -273.75 10.625 -272 13 C-271.01 13.99 -271.01 13.99 -270 15 C-269.38125 13.96875 -268.7625 12.9375 -268.125 11.875 C-264.51449287 6.79965854 -258.9071733 3.00129353 -252.84887695 1.44873047 C-246.85618377 0.50481325 -240.73741552 0.61417732 -234.68139648 0.54003906 C-233.02387605 0.51342787 -231.36652138 0.47249653 -229.7097168 0.41699219 C-214.16474136 -0.09648228 -214.16474136 -0.09648228 -208.95703125 4.34765625 C-206.55434327 6.9649747 -204.84981014 9.49453318 -204 13 C-203.0409375 11.6696875 -203.0409375 11.6696875 -202.0625 10.3125 C-198.16364656 5.59812707 -192.73288278 2.91096093 -187 1 C-184.10890172 0.90261332 -181.24261612 0.86006729 -178.3515625 0.8671875 C-177.50201996 0.86623077 -176.65247742 0.86527405 -175.77719116 0.86428833 C-173.98004075 0.86360793 -172.18288787 0.86545249 -170.38574219 0.86962891 C-167.64252149 0.87496591 -164.89946551 0.86968603 -162.15625 0.86328125 C-160.40885381 0.86394232 -158.66145772 0.86522406 -156.9140625 0.8671875 C-156.0962027 0.86516327 -155.2783429 0.86313904 -154.43569946 0.86105347 C-150.45512048 0.877333 -146.91030107 1.21220384 -143 2 C-142.01 1.67 -141.02 1.34 -140 1 C-137.61740382 0.90409539 -135.23218093 0.86925727 -132.84765625 0.8671875 C-132.15111435 0.86623077 -131.45457245 0.86527405 -130.73692322 0.86428833 C-129.26512563 0.8636085 -127.79332502 0.86544905 -126.3215332 0.86962891 C-124.07431255 0.87497191 -121.8272925 0.86968147 -119.58007812 0.86328125 C-118.14843706 0.86394222 -116.71679612 0.86522379 -115.28515625 0.8671875 C-113.98457275 0.86831543 -112.68398926 0.86944336 -111.34399414 0.87060547 C-108.65342037 0.97471616 -106.56422647 1.31521948 -104 2 C-103.67 1.67 -103.34 1.34 -103 1 C-100.40382612 0.89890734 -97.83486352 0.86030306 -95.23828125 0.8671875 C-94.45486862 0.86623077 -93.67145599 0.86527405 -92.86430359 0.86428833 C-91.20063192 0.86360617 -89.53695761 0.86546293 -87.87329102 0.86962891 C-85.34059553 0.87494107 -82.80808029 0.86970375 -80.27539062 0.86328125 C-78.65885378 0.86394273 -77.04231704 0.86522532 -75.42578125 0.8671875 C-74.29575432 0.86415115 -74.29575432 0.86415115 -73.14289856 0.86105347 C-68.98296787 0.87934016 -65.08713829 1.25294541 -61 2 C-59.038072 1.9152928 -57.07841056 1.76380567 -55.125 1.5625 C-48.22305986 0.99288651 -41.36193275 0.88279896 -34.4375 0.875 C-33.39029785 0.87056885 -32.3430957 0.8661377 -31.26416016 0.86157227 C-29.77021729 0.86435181 -29.77021729 0.86435181 -28.24609375 0.8671875 C-26.91082642 0.86887939 -26.91082642 0.86887939 -25.54858398 0.87060547 C-23 1 -23 1 -20.32324219 1.56518555 C-14.27828816 2.69654989 -6.90591227 -0.84970211 0 0 Z " fill="#0A3F12" transform="translate(391,213)"/>
<path d="M0 0 C2.43045893 1.04754664 4.32004626 2.20379091 6.4140625 3.80859375 C8.10775399 5.21201519 8.10775399 5.21201519 11 6 C13.15625583 5.27878844 13.15625583 5.27878844 15.375 4.125 C26.42645815 -1.30578528 42.06692576 -0.37732133 53.62109375 3.09375 C61.10674787 5.94542776 66.01245383 11.19834919 69.65625 18.16796875 C72.33299594 25.65318344 71.37833876 34.51980832 71.28491211 42.38500977 C70.76740132 52.53888206 70.76740132 52.53888206 74.9921875 61.3046875 C75.53343262 61.75440918 76.07467773 62.20413086 76.63232422 62.66748047 C78.39736363 64.38714936 78.56018534 65.64727643 78.8125 68.0625 C78.53168156 71.43232124 77.45866969 73.02904585 75 75.3125 C67.88515863 80.53479356 60.77623567 82.1183015 52 81 C46.93033006 79.56757248 42.56418301 77.98685856 39 74 C36.4039787 74.93745214 34.25476641 75.80276149 32.0625 77.5 C25.42699181 82.32582414 16.79930767 81.79584772 9 81 C2.61124254 78.8900417 -1.71467437 73.7180581 -5 68 C-6.97647567 62.33410309 -7.08212762 54.51691478 -5.328125 48.81640625 C-4.5 47.1875 -4.5 47.1875 -3 45 C-4.37285156 44.90912109 -4.37285156 44.90912109 -5.7734375 44.81640625 C-6.96195312 44.73261719 -8.15046875 44.64882813 -9.375 44.5625 C-10.55835938 44.48128906 -11.74171875 44.40007812 -12.9609375 44.31640625 C-16 44 -16 44 -18 43 C-18 48.94 -18 54.88 -18 61 C-16.515 61.495 -16.515 61.495 -15 62 C-12.5400867 65.02217919 -11.13150145 67.19455363 -10.5 71.0625 C-11.12098357 74.7107785 -12.4450621 76.36991687 -15 79 C-18.43604765 80.71802382 -22.38438896 80.1196618 -26.1640625 80.09765625 C-27.07127045 80.0962413 -27.97847839 80.09482635 -28.91317749 80.09336853 C-31.81715155 80.08776096 -34.72104915 80.07520718 -37.625 80.0625 C-39.59114472 80.05748598 -41.55729065 80.0529229 -43.5234375 80.04882812 C-48.3489879 80.03778906 -53.17448097 80.02051935 -58 80 C-57.34 78.68 -56.68 77.36 -56 76 C-55.02651611 75.97494385 -54.05303223 75.9498877 -53.05004883 75.92407227 C-49.42508653 75.82962722 -45.80029934 75.72949833 -42.17553711 75.62768555 C-40.60917264 75.58447661 -39.04276533 75.54279209 -37.47631836 75.50268555 C-35.2197582 75.44464129 -32.96341092 75.38104698 -30.70703125 75.31640625 C-30.01100296 75.29969376 -29.31497467 75.28298126 -28.59785461 75.26576233 C-24.96127203 75.15591581 -21.54207573 74.84278009 -18 74 C-18.04452419 71.67108098 -18.04452419 71.67108098 -19 69 C-20.95927063 67.2856382 -22.95880212 65.61594832 -25 64 C-26.09911549 60.70265354 -26.1139456 58.27041255 -26.09765625 54.80078125 C-26.09282227 52.98803711 -26.09282227 52.98803711 -26.08789062 51.13867188 C-26.07532227 49.2447168 -26.07532227 49.2447168 -26.0625 47.3125 C-26.05798828 46.03826172 -26.05347656 44.76402344 -26.04882812 43.45117188 C-26.03702873 40.30073436 -26.02056597 37.15039051 -26 34 C-20.04727764 32.93246903 -17.51494965 33.62286653 -12 36 C-8.13307352 36.65690345 -4.62336872 36.91505126 -1.12890625 34.9453125 C1.04251808 33.18526113 2.74316992 31.51366015 4 29 C4.22985781 26.18933363 4.36970798 23.43953747 4.4375 20.625 C4.50614258 19.47257812 4.50614258 19.47257812 4.57617188 18.296875 C4.6208145 16.0530981 4.56341856 14.17390809 4 12 C-0.57494916 7.72471999 -4.3789504 7.39808818 -10.37109375 7.59375 C-14.15902478 8.17910636 -16.06584425 9.59248759 -19 12 C-19.66 12 -20.32 12 -21 12 C-21.28875 12.639375 -21.5775 13.27875 -21.875 13.9375 C-23 16 -23 16 -25 17 C-25.495 12.545 -25.495 12.545 -26 8 C-42.54629272 7.59036464 -42.54629272 7.59036464 -59 9 C-60.29113396 10.09539142 -60.29113396 10.09539142 -60.4375 12.75 C-60.293125 13.8225 -60.14875 14.895 -60 16 C-59.01451172 16.70890381 -58.02902344 17.41780762 -57.01367188 18.14819336 C-55.07323501 19.68378597 -54.13685123 20.5206475 -53.45166016 22.92068481 C-53.27374017 25.26000924 -53.27267231 27.53382066 -53.34375 29.87890625 C-53.34936951 31.15253273 -53.34936951 31.15253273 -53.35510254 32.45188904 C-53.36851136 34.24144269 -53.39627805 36.03093929 -53.4375 37.82006836 C-53.4998754 40.55703287 -53.51945104 43.29169159 -53.53125 46.02929688 C-53.54958995 47.77086138 -53.5703415 49.5124025 -53.59375 51.25390625 C-53.60649963 52.47902672 -53.60649963 52.47902672 -53.61950684 53.72889709 C-53.71666685 57.59388478 -53.80406268 60.72534698 -56 64 C-56.66 64 -57.32 64 -58 64 C-58.66 63.34 -59.32 62.68 -60 62 C-60.495 62.99 -60.495 62.99 -61 64 C-61.66 64 -62.32 64 -63 64 C-63.33 63.34 -63.66 62.68 -64 62 C-64.99 62 -65.98 62 -67 62 C-68.23211948 59.53576104 -68.15779908 57.84765337 -68.20532227 55.09130859 C-68.2352401 53.55994766 -68.2352401 53.55994766 -68.26576233 51.99765015 C-68.28247482 50.89240997 -68.29918732 49.7871698 -68.31640625 48.6484375 C-68.33718735 47.5192691 -68.35796844 46.39010071 -68.37937927 45.22671509 C-68.44491335 41.60954028 -68.50377774 37.99229119 -68.5625 34.375 C-68.60568154 31.92707556 -68.64929571 29.47915872 -68.69335938 27.03125 C-68.80141504 21.02090845 -68.90046015 15.01051284 -69 9 C-79.23 9 -89.46 9 -100 9 C-100.33 10.65 -100.66 12.3 -101 14 C-100.02498535 14.66064453 -99.0499707 15.32128906 -98.04541016 16.00195312 C-95.25950673 18.33829932 -95.02276124 18.88686544 -94.25537109 22.70117188 C-94.22947488 24.12347493 -94.23726251 25.54667125 -94.2734375 26.96875 C-94.27244049 27.72667847 -94.27144348 28.48460693 -94.27041626 29.26550293 C-94.27508186 30.86249316 -94.29444698 32.45950022 -94.32763672 34.05615234 C-94.37486834 36.49320675 -94.36875022 38.92588473 -94.35546875 41.36328125 C-94.3666232 42.91929677 -94.38084358 44.47529396 -94.3984375 46.03125 C-94.39661469 46.75534058 -94.39479187 47.47943115 -94.39291382 48.22546387 C-94.49217832 51.78807891 -94.93803797 53.89898039 -96.81494141 56.95898438 C-99 59 -99 59 -102.5625 59.625 C-106 59 -106 59 -107.69433594 57.11157227 C-109.5898972 52.59419601 -109.39000116 48.44018283 -109.328125 43.58984375 C-109.32625183 42.58538712 -109.32437866 41.58093048 -109.32244873 40.54603577 C-109.31573871 38.42705963 -109.30184515 36.30809566 -109.28125 34.18920898 C-109.25007865 30.94568363 -109.2402748 27.70264474 -109.234375 24.45898438 C-109.22520502 22.39843157 -109.21482926 20.33788371 -109.203125 18.27734375 C-109.19887512 17.30748032 -109.19462524 16.33761688 -109.19024658 15.33836365 C-109.18063904 14.43384964 -109.17103149 13.52933563 -109.16113281 12.59741211 C-109.15430481 11.80419052 -109.14747681 11.01096893 -109.14044189 10.19371033 C-109.00098189 8.01533715 -108.59916925 6.09453582 -108 4 C-106.68 4 -105.36 4 -104 4 C-103.67 3.01 -103.34 2.02 -103 1 C-97.98291378 0.97519317 -92.96586365 0.95708948 -87.94873047 0.94506836 C-86.24364601 0.94005436 -84.53856582 0.9332415 -82.83349609 0.92456055 C-80.37596581 0.91236615 -77.91849262 0.90674225 -75.4609375 0.90234375 C-74.70444916 0.89718246 -73.94796082 0.89202118 -73.16854858 0.88670349 C-68.99532627 0.88626588 -65.09939391 1.24667964 -61 2 C-59.038072 1.9152928 -57.07841056 1.76380567 -55.125 1.5625 C-48.22305986 0.99288651 -41.36193275 0.88279896 -34.4375 0.875 C-33.39029785 0.87056885 -32.3430957 0.8661377 -31.26416016 0.86157227 C-29.77021729 0.86435181 -29.77021729 0.86435181 -28.24609375 0.8671875 C-26.91082642 0.86887939 -26.91082642 0.86887939 -25.54858398 0.87060547 C-23 1 -23 1 -20.32324219 1.56518555 C-14.27828816 2.69654989 -6.90591227 -0.84970211 0 0 Z " fill="#107F2A" transform="translate(391,213)"/>
<path d="M0 0 C4.09338652 -0.04939115 8.18665798 -0.08571501 12.28027344 -0.10986328 C13.67320781 -0.11992877 15.06612102 -0.13358234 16.45898438 -0.15087891 C18.4595436 -0.1751022 20.46025615 -0.18540814 22.4609375 -0.1953125 C24.26763916 -0.21102295 24.26763916 -0.21102295 26.11083984 -0.22705078 C29 0 29 0 31 2 C31.26501465 3.87727356 31.26501465 3.87727356 31.28710938 6.18676758 C31.30052368 7.05139114 31.31393799 7.91601471 31.32775879 8.80683899 C31.33303589 9.74327744 31.33831299 10.67971588 31.34375 11.64453125 C31.3583728 12.60646896 31.37299561 13.56840668 31.38806152 14.55949402 C31.43467466 17.64378693 31.46879752 20.72801494 31.5 23.8125 C31.54116495 27.86091483 31.59489545 31.90887776 31.65625 35.95703125 C31.6615271 36.887397 31.6668042 37.81776276 31.67224121 38.77632141 C31.74130289 43.27640015 31.86586297 46.91649279 34 51 C38.75756774 50.78319287 38.75756774 50.78319287 42.69897461 48.44506836 C44.50045576 45.05947374 44.48675024 41.87644687 44.50390625 38.12890625 C44.51389145 37.36956284 44.52387665 36.61021942 44.53416443 35.8278656 C44.54932202 34.22506139 44.55639095 32.62216292 44.5559082 31.01928711 C44.56247152 28.57311498 44.61696854 26.13100116 44.67382812 23.68554688 C44.682631 22.12501383 44.68858468 20.56446157 44.69140625 19.00390625 C44.7129628 18.27667862 44.73451935 17.54945099 44.75672913 16.80018616 C44.71759117 13.88520943 44.56013867 11.65134963 42.61764526 9.39254761 C40.80018242 7.81986884 40.80018242 7.81986884 38 6 C38.875 1.125 38.875 1.125 40 0 C42.27947792 -0.1002093 44.56207135 -0.13081303 46.84375 -0.1328125 C47.52804077 -0.13376923 48.21233154 -0.13472595 48.9173584 -0.13571167 C50.36661877 -0.1363933 51.81588218 -0.13454023 53.26513672 -0.13037109 C55.49062928 -0.12502252 57.71592001 -0.1303166 59.94140625 -0.13671875 C61.34635461 -0.13605797 62.75130285 -0.1347768 64.15625 -0.1328125 C65.44337891 -0.13168457 66.73050781 -0.13055664 68.05664062 -0.12939453 C71 0 71 0 72 1 C72.09665988 2.56952729 72.12515686 4.14331964 72.12597656 5.71582031 C72.12978333 6.72066467 72.13359009 7.72550903 72.13751221 8.76080322 C72.13853943 9.85551941 72.13956665 10.9502356 72.140625 12.078125 C72.15895489 14.37631198 72.17852536 16.67448934 72.19921875 18.97265625 C72.22819455 22.61132966 72.24999992 26.24938731 72.25048828 29.88818359 C72.25381975 33.38955888 72.28836017 36.88949849 72.328125 40.390625 C72.3210553 41.47724426 72.3139856 42.56386353 72.30670166 43.68341064 C72.33193611 49.89713788 72.33193611 49.89713788 75.53027344 55.06933594 C76.3452832 55.70645508 77.16029297 56.34357422 78 57 C78.27341915 60.64558871 77.04916284 61.93679063 74.8125 64.8125 C69.77141405 68.66960208 62.95897327 67.74571907 57 67 C53.75837107 66.01653084 51.83890594 64.94826878 49 63 C48.67 62.01 48.34 61.02 48 60 C47.154375 60.598125 46.30875 61.19625 45.4375 61.8125 C36.01288509 67.91461242 26.53039253 68.36483654 15.4375 66.4375 C11.00638009 64.58448622 8.57842652 62.0059291 6 58 C5.0754153 55.22624589 4.87577438 53.5763734 4.87402344 50.71557617 C4.86831329 49.42359566 4.86831329 49.42359566 4.86248779 48.10551453 C4.86146057 47.17737442 4.86043335 46.24923431 4.859375 45.29296875 C4.84104708 43.32485822 4.82147678 41.35675893 4.80078125 39.38867188 C4.7718173 36.28781143 4.75000003 33.18767443 4.74951172 30.08666992 C4.7461727 27.09228426 4.71159694 24.09956461 4.671875 21.10546875 C4.6789447 20.18340134 4.6860144 19.26133392 4.69329834 18.31132507 C4.60916216 13.84821045 4.48996173 11.04567532 1.39550781 7.6809082 C0.60499023 6.7962085 -0.18552734 5.91150879 -1 5 C-0.8125 2.125 -0.8125 2.125 0 0 Z " fill="#76C764" transform="translate(251,221)"/>
<path d="M0 0 C2.43045893 1.04754664 4.32004626 2.20379091 6.4140625 3.80859375 C8.10775399 5.21201519 8.10775399 5.21201519 11 6 C13.15625583 5.27878844 13.15625583 5.27878844 15.375 4.125 C26.44189539 -1.31337128 42.03142113 -0.34998425 53.609375 3.078125 C56.89437551 4.3448899 59.27507692 5.76416567 62 8 C62.598125 8.45375 63.19625 8.9075 63.8125 9.375 C65.55054016 11.75337074 65.68005856 14.12052705 66 17 C64.68 17.66 63.36 18.32 62 19 C61.64808594 18.52949219 61.29617188 18.05898437 60.93359375 17.57421875 C56.618575 12.13256324 52.70558796 9.79924446 45.8125 8.3125 C34.78933978 7.40896228 21.92665054 6.44668031 13 14 C10.57869669 17.63195496 10.78977215 19.38349348 10.875 23.6875 C10.89304687 24.86699219 10.91109375 26.04648438 10.9296875 27.26171875 C10.95289063 28.16535156 10.97609375 29.06898438 11 30 C12.91541138 30.10841951 14.83259773 30.18578079 16.75 30.25 C18.35101563 30.31960937 18.35101563 30.31960937 19.984375 30.390625 C23.0771733 30.2437129 23.0771733 30.2437129 25.3203125 28.2421875 C27.00812607 25.98915264 27.63618055 24.61030886 28.125 21.875 C29 18 29 18 31 16 C36.24291876 15.44224269 36.24291876 15.44224269 38.69140625 17.24609375 C40.37714952 19.50549293 40.30294365 20.60117224 40 23.375 C39.48340714 26.68442299 38.94125675 28.08627915 37 30.9375 C31.21810213 34.91255479 24.85624861 35.29175526 18 35 C18 35.66 18 36.32 18 37 C16.989375 37.37125 15.97875 37.7425 14.9375 38.125 C11.17040308 39.70352037 8.57246311 41.95159347 5.67578125 44.79296875 C4 46 4 46 0 46 C-1.7511573 47.4166747 -1.7511573 47.4166747 -3 49 C-3 47.68 -3 46.36 -3 45 C-4.37285156 44.90912109 -4.37285156 44.90912109 -5.7734375 44.81640625 C-6.96195312 44.73261719 -8.15046875 44.64882813 -9.375 44.5625 C-10.55835938 44.48128906 -11.74171875 44.40007812 -12.9609375 44.31640625 C-16 44 -16 44 -18 43 C-18 48.94 -18 54.88 -18 61 C-16.515 61.495 -16.515 61.495 -15 62 C-12.5400867 65.02217919 -11.13150145 67.19455363 -10.5 71.0625 C-11.12098357 74.7107785 -12.4450621 76.36991687 -15 79 C-18.43604765 80.71802382 -22.38438896 80.1196618 -26.1640625 80.09765625 C-27.07127045 80.0962413 -27.97847839 80.09482635 -28.91317749 80.09336853 C-31.81715155 80.08776096 -34.72104915 80.07520718 -37.625 80.0625 C-39.59114472 80.05748598 -41.55729065 80.0529229 -43.5234375 80.04882812 C-48.3489879 80.03778906 -53.17448097 80.02051935 -58 80 C-57.34 78.68 -56.68 77.36 -56 76 C-55.02651611 75.97494385 -54.05303223 75.9498877 -53.05004883 75.92407227 C-49.42508653 75.82962722 -45.80029934 75.72949833 -42.17553711 75.62768555 C-40.60917264 75.58447661 -39.04276533 75.54279209 -37.47631836 75.50268555 C-35.2197582 75.44464129 -32.96341092 75.38104698 -30.70703125 75.31640625 C-30.01100296 75.29969376 -29.31497467 75.28298126 -28.59785461 75.26576233 C-24.96127203 75.15591581 -21.54207573 74.84278009 -18 74 C-18.04452419 71.67108098 -18.04452419 71.67108098 -19 69 C-20.95927063 67.2856382 -22.95880212 65.61594832 -25 64 C-26.09911549 60.70265354 -26.1139456 58.27041255 -26.09765625 54.80078125 C-26.09282227 52.98803711 -26.09282227 52.98803711 -26.08789062 51.13867188 C-26.07532227 49.2447168 -26.07532227 49.2447168 -26.0625 47.3125 C-26.05798828 46.03826172 -26.05347656 44.76402344 -26.04882812 43.45117188 C-26.03702873 40.30073436 -26.02056597 37.15039051 -26 34 C-20.04727764 32.93246903 -17.51494965 33.62286653 -12 36 C-8.13307352 36.65690345 -4.62336872 36.91505126 -1.12890625 34.9453125 C1.04251808 33.18526113 2.74316992 31.51366015 4 29 C4.22985781 26.18933363 4.36970798 23.43953747 4.4375 20.625 C4.50614258 19.47257812 4.50614258 19.47257812 4.57617188 18.296875 C4.6208145 16.0530981 4.56341856 14.17390809 4 12 C-0.57494916 7.72471999 -4.3789504 7.39808818 -10.37109375 7.59375 C-14.15902478 8.17910636 -16.06584425 9.59248759 -19 12 C-19.66 12 -20.32 12 -21 12 C-21.28875 12.639375 -21.5775 13.27875 -21.875 13.9375 C-23 16 -23 16 -25 17 C-25.495 12.545 -25.495 12.545 -26 8 C-42.54629272 7.59036464 -42.54629272 7.59036464 -59 9 C-60.29113396 10.09539142 -60.29113396 10.09539142 -60.4375 12.75 C-60.293125 13.8225 -60.14875 14.895 -60 16 C-59.01451172 16.70890381 -58.02902344 17.41780762 -57.01367188 18.14819336 C-55.07323501 19.68378597 -54.13685123 20.5206475 -53.45166016 22.92068481 C-53.27374017 25.26000924 -53.27267231 27.53382066 -53.34375 29.87890625 C-53.34936951 31.15253273 -53.34936951 31.15253273 -53.35510254 32.45188904 C-53.36851136 34.24144269 -53.39627805 36.03093929 -53.4375 37.82006836 C-53.4998754 40.55703287 -53.51945104 43.29169159 -53.53125 46.02929688 C-53.54958995 47.77086138 -53.5703415 49.5124025 -53.59375 51.25390625 C-53.60649963 52.47902672 -53.60649963 52.47902672 -53.61950684 53.72889709 C-53.71666685 57.59388478 -53.80406268 60.72534698 -56 64 C-56.66 64 -57.32 64 -58 64 C-58.66 63.34 -59.32 62.68 -60 62 C-60.495 62.99 -60.495 62.99 -61 64 C-61.66 64 -62.32 64 -63 64 C-63.33 63.34 -63.66 62.68 -64 62 C-64.99 62 -65.98 62 -67 62 C-68.23211948 59.53576104 -68.15779908 57.84765337 -68.20532227 55.09130859 C-68.2352401 53.55994766 -68.2352401 53.55994766 -68.26576233 51.99765015 C-68.28247482 50.89240997 -68.29918732 49.7871698 -68.31640625 48.6484375 C-68.33718735 47.5192691 -68.35796844 46.39010071 -68.37937927 45.22671509 C-68.44491335 41.60954028 -68.50377774 37.99229119 -68.5625 34.375 C-68.60568154 31.92707556 -68.64929571 29.47915872 -68.69335938 27.03125 C-68.80141504 21.02090845 -68.90046015 15.01051284 -69 9 C-79.23 9 -89.46 9 -100 9 C-100.33 10.65 -100.66 12.3 -101 14 C-100.02498535 14.66064453 -99.0499707 15.32128906 -98.04541016 16.00195312 C-95.25950673 18.33829932 -95.02276124 18.88686544 -94.25537109 22.70117188 C-94.22947488 24.12347493 -94.23726251 25.54667125 -94.2734375 26.96875 C-94.27244049 27.72667847 -94.27144348 28.48460693 -94.27041626 29.26550293 C-94.27508186 30.86249316 -94.29444698 32.45950022 -94.32763672 34.05615234 C-94.37486834 36.49320675 -94.36875022 38.92588473 -94.35546875 41.36328125 C-94.3666232 42.91929677 -94.38084358 44.47529396 -94.3984375 46.03125 C-94.39661469 46.75534058 -94.39479187 47.47943115 -94.39291382 48.22546387 C-94.49217832 51.78807891 -94.93803797 53.89898039 -96.81494141 56.95898438 C-99 59 -99 59 -102.5625 59.625 C-106 59 -106 59 -107.69433594 57.11157227 C-109.5898972 52.59419601 -109.39000116 48.44018283 -109.328125 43.58984375 C-109.32625183 42.58538712 -109.32437866 41.58093048 -109.32244873 40.54603577 C-109.31573871 38.42705963 -109.30184515 36.30809566 -109.28125 34.18920898 C-109.25007865 30.94568363 -109.2402748 27.70264474 -109.234375 24.45898438 C-109.22520502 22.39843157 -109.21482926 20.33788371 -109.203125 18.27734375 C-109.19887512 17.30748032 -109.19462524 16.33761688 -109.19024658 15.33836365 C-109.18063904 14.43384964 -109.17103149 13.52933563 -109.16113281 12.59741211 C-109.15430481 11.80419052 -109.14747681 11.01096893 -109.14044189 10.19371033 C-109.00098189 8.01533715 -108.59916925 6.09453582 -108 4 C-106.68 4 -105.36 4 -104 4 C-103.67 3.01 -103.34 2.02 -103 1 C-97.98291378 0.97519317 -92.96586365 0.95708948 -87.94873047 0.94506836 C-86.24364601 0.94005436 -84.53856582 0.9332415 -82.83349609 0.92456055 C-80.37596581 0.91236615 -77.91849262 0.90674225 -75.4609375 0.90234375 C-74.70444916 0.89718246 -73.94796082 0.89202118 -73.16854858 0.88670349 C-68.99532627 0.88626588 -65.09939391 1.24667964 -61 2 C-59.038072 1.9152928 -57.07841056 1.76380567 -55.125 1.5625 C-48.22305986 0.99288651 -41.36193275 0.88279896 -34.4375 0.875 C-33.39029785 0.87056885 -32.3430957 0.8661377 -31.26416016 0.86157227 C-29.77021729 0.86435181 -29.77021729 0.86435181 -28.24609375 0.8671875 C-26.91082642 0.86887939 -26.91082642 0.86887939 -25.54858398 0.87060547 C-23 1 -23 1 -20.32324219 1.56518555 C-14.27828816 2.69654989 -6.90591227 -0.84970211 0 0 Z " fill="#0B4011" transform="translate(391,213)"/>
<path d="M0 0 C0.84240234 -0.01611328 1.68480469 -0.03222656 2.55273438 -0.04882812 C9.98559364 -0.05455011 16.12521006 1.46309522 22.4375 5.4375 C30.00051696 13.72080429 28.50633481 25.61169003 28.49829102 36.10424805 C28.48284987 47.74930811 28.48284987 47.74930811 33.0625 58.3125 C33.3925 59.3025 33.7225 60.2925 34.0625 61.3125 C34.7225 61.3125 35.3825 61.3125 36.0625 61.3125 C35.10526125 64.08849238 34.10904399 65.27727752 31.75 67.0625 C25.30542132 69.24710294 17.51936839 69.60841092 11.0625 67.125 C7.8451878 65.18120722 5.57180643 63.10061825 3.0625 60.3125 C2.464375 59.714375 1.86625 59.11625 1.25 58.5 C0.858125 58.108125 0.46625 57.71625 0.0625 57.3125 C-0.185 57.93125 -0.4325 58.55 -0.6875 59.1875 C-2.14378639 61.66318687 -3.31562506 62.26375002 -5.9375 63.3125 C-5.9375 63.9725 -5.9375 64.6325 -5.9375 65.3125 C-12.15948564 68.22215508 -17.99917579 70.74758504 -24.9375 69.3125 C-29.18369519 67.56799673 -32.11653855 65.36435686 -34.9375 61.75 C-36.64124113 55.89338985 -37.14705651 49.81846091 -35.12890625 43.96875 C-30.35668449 35.38205341 -20.92088956 31.21162572 -11.9375 28.3125 C-8.77057462 27.48917599 -5.60261301 26.72367166 -2.40625 26.0234375 C0.21272659 25.48481751 0.21272659 25.48481751 2.0625 23.3125 C2.34412436 20.44867279 2.34412436 20.44867279 2.25 17.25 C2.24033203 15.62384766 2.24033203 15.62384766 2.23046875 13.96484375 C2.36081107 11.39047685 2.36081107 11.39047685 1.0625 10.3125 C-3.58838715 10.00726038 -3.58838715 10.00726038 -7.9375 11.3125 C-8.25312553 13.30858427 -8.25312553 13.30858427 -8.3125 15.625 C-8.61302125 18.57386479 -8.8926288 20.2288764 -10.3125 22.875 C-14.53240487 25.18590029 -19.25393563 25.28496527 -23.9375 24.3125 C-26.12217335 22.23611865 -26.83639699 20.87266533 -27.37109375 17.91015625 C-27.37752162 13.73846792 -27.36283969 11.05290612 -25.25 7.375 C-17.83110575 0.75814838 -9.56137488 -0.03641041 0 0 Z " fill="#11832B" transform="translate(86.9375,219.6875)"/>
<path d="M0 0 C0.7432251 0.00338379 1.4864502 0.00676758 2.25219727 0.01025391 C23.26436096 0.20186096 23.26436096 0.20186096 26.1875 3.125 C26.1875 4.115 26.1875 5.105 26.1875 6.125 C26.8475 6.125 27.5075 6.125 28.1875 6.125 C29.54170365 10.18761096 29.97526091 13.88791703 29.1875 18.125 C26.06540151 21.32515095 23.36772942 22.35857658 19 22.625 C15.1875 22.125 15.1875 22.125 13.3125 20.4375 C12.14495672 18.03754992 11.13184696 15.62077411 10.1875 13.125 C9.06215895 11.76881501 9.06215895 11.76881501 6.125 12.0625 C4.6709375 12.0934375 4.6709375 12.0934375 3.1875 12.125 C2.44260586 14.80661889 1.98976688 16.5351146 2.88671875 19.2109375 C4.58391355 21.70831123 5.71130449 21.85665603 8.625 22.5 C18.20182515 25.08795708 26.70215891 29.60374686 32.1875 38.125 C34.27521024 44.17812437 34.22756003 51.64980096 31.625 57.5 C28.01101262 63.65763007 22.22290493 66.8023105 15.45703125 68.62109375 C2.93096505 70.55163442 -9.8301517 70.26399542 -21.1875 64.375 C-25.32052466 60.83240744 -27.41331661 57.72528806 -28.23046875 52.40234375 C-28.47653559 47.46105549 -28.4872672 44.99008616 -25.375 41 C-24.1065625 40.071875 -24.1065625 40.071875 -22.8125 39.125 C-22.3175 38.63 -22.3175 38.63 -21.8125 38.125 C-19.0625 37.75 -19.0625 37.75 -15.8125 38.125 C-12.96178544 40.50059547 -11.00806353 42.82153936 -9 45.9375 C-7.08033393 48.28819846 -7.08033393 48.28819846 -4.78515625 48.4375 C-2.7915476 48.4375 -0.79922224 48.29056019 1.1875 48.125 C0.59961498 45.18557489 -0.24127761 43.52981256 -2.703125 41.78515625 C-6.23754087 39.80756642 -9.7001996 38.16687473 -13.5 36.75 C-17.69891578 34.69015452 -20.20646103 31.97284278 -22.8125 28.125 C-24.76950401 22.25398796 -25.39081442 14.4400064 -22.68359375 8.75390625 C-16.63182576 1.40645948 -9.05664743 -0.05893476 0 0 Z " fill="#F6F8F6" transform="translate(216.8125,218.875)"/>
<path d="M0 0 C1.29035156 0.02964844 2.58070313 0.05929688 3.91015625 0.08984375 C5.13605469 0.14269531 6.36195313 0.19554687 7.625 0.25 C8.73101562 0.29640625 9.83703125 0.3428125 10.9765625 0.390625 C14.65728313 1.13247567 16.34696702 2.37489369 19 5 C21.64311899 9.04903334 21.8176037 13.30953665 21 18 C18.87299416 20.72522624 17.41310533 21.70898425 14.02734375 22.40625 C11.9375 22.5625 11.9375 22.5625 8 22 C5.44399463 19.58215709 4.16349309 17.33441769 2.625 14.1875 C2.08875 13.465625 1.5525 12.74375 1 12 C-2.12635209 11.58253392 -2.12635209 11.58253392 -5 12 C-5.85974801 14.29294488 -5.85974801 14.29294488 -6 17 C-2.33804199 21.84006783 3.30823631 23.59715444 8.71289062 25.91210938 C13.41292951 28.00790508 16.69541429 30.01215999 20 34 C20 34.66 20 35.32 20 36 C20.66 36 21.32 36 22 36 C24.87078945 42.14673063 24.85028786 48.34819054 24 55 C22.54426693 58.33627081 20.672986 60.55764775 18 63 C17.45859375 63.50144531 16.9171875 64.00289063 16.359375 64.51953125 C7.49009824 71.71027666 -5.19726781 70.79548087 -16 70 C-22.67781274 68.94863465 -27.28305905 66.82663725 -32 62 C-32.48597656 61.50757813 -32.97195312 61.01515625 -33.47265625 60.5078125 C-37.23442301 56.12781666 -37.69102986 52.15184142 -37.43359375 46.46484375 C-37 44 -37 44 -35.125 41.375 C-30.8438146 38.60482121 -28.04963016 38.91855435 -23 39 C-23 39.66 -23 40.32 -23 41 C-22.4225 41.20625 -21.845 41.4125 -21.25 41.625 C-19 43 -19 43 -17.0625 46.125 C-15.32875183 49.25279585 -15.32875183 49.25279585 -12.4375 49.4375 C-9.8728049 49.03741032 -9.8728049 49.03741032 -7 48 C-7.95412689 44.18349242 -8.85003482 43.09997679 -12.1875 40.875 C-14.60422049 39.60909879 -16.92940626 38.65147265 -19.5 37.6875 C-24.04786233 35.49478066 -28.79696634 32.14747179 -30.671875 27.2421875 C-31.14527829 24.00726503 -31.29077429 20.83110529 -31.375 17.5625 C-31.42398438 16.26441406 -31.47296875 14.96632812 -31.5234375 13.62890625 C-30.87632135 9.14255622 -29.44063441 7.82919637 -26 5 C-25.38125 4.443125 -24.7625 3.88625 -24.125 3.3125 C-16.8102894 -1.20540949 -8.2299775 -0.25511524 0 0 Z " fill="#76C766" transform="translate(160,219)"/>
<path d="M0 0 C0.94528564 -0.00467285 1.89057129 -0.0093457 2.86450195 -0.01416016 C3.748396 -0.01206543 4.63229004 -0.0099707 5.54296875 -0.0078125 C6.74022583 -0.00612061 6.74022583 -0.00612061 7.96166992 -0.00439453 C9.8125 0.125 9.8125 0.125 10.8125 1.125 C11.26709858 3.77963121 11.51493238 6.44689138 11.8125 9.125 C12.51375 8.3825 13.215 7.64 13.9375 6.875 C18.61188775 2.4038465 21.73466249 -0.11652129 28.3125 -0.375 C33.87454247 -0.18555714 36.86972409 1.18222409 40.8125 5.125 C42.05739464 19.52795826 42.05739464 19.52795826 39.54296875 24.7734375 C37.09914888 27.5918575 34.73507587 29.92138708 30.89453125 30.328125 C25.39611872 30.44168946 21.89114698 29.38217644 16.8125 27.125 C14.47991091 27.06607143 12.14488605 27.05851869 9.8125 27.125 C9.89347907 31.52158178 10.00631799 35.9167871 10.125 40.3125 C10.15883789 42.18131836 10.15883789 42.18131836 10.19335938 44.08789062 C10.22880859 45.28994141 10.26425781 46.49199219 10.30078125 47.73046875 C10.32696533 48.83543701 10.35314941 49.94040527 10.38012695 51.07885742 C10.86113937 54.46767276 11.80344547 56.37810009 13.8125 59.125 C14.534375 59.62 15.25625 60.115 16 60.625 C16.598125 61.12 17.19625 61.615 17.8125 62.125 C18.0625 64.8125 18.0625 64.8125 17.8125 67.125 C14.48994449 68.78627775 10.77315571 68.26661724 7.12109375 68.2578125 C6.26064957 68.25876923 5.40020538 68.25972595 4.51368713 68.26071167 C2.69377571 68.26139265 0.87386185 68.25954409 -0.94604492 68.25537109 C-3.74207979 68.25001517 -6.53795448 68.2553222 -9.33398438 68.26171875 C-11.09895869 68.26105808 -12.8639329 68.25977715 -14.62890625 68.2578125 C-15.47054825 68.25983673 -16.31219025 68.26186096 -17.17933655 68.26394653 C-23.07254528 68.23995472 -23.07254528 68.23995472 -24.1875 67.125 C-24.22842937 64.79202567 -24.22991723 62.45794775 -24.1875 60.125 C-22.7025 59.63 -22.7025 59.63 -21.1875 59.125 C-18.91603107 54.23132061 -18.83699552 49.47251636 -18.78125 44.18359375 C-18.76984985 43.33829605 -18.75844971 42.49299835 -18.7467041 41.62208557 C-18.72789049 39.84291531 -18.71477064 38.06367672 -18.70703125 36.28442383 C-18.68752975 33.56664555 -18.62538502 30.85184072 -18.5625 28.13476562 C-18.54944587 26.40105952 -18.53894259 24.66733194 -18.53125 22.93359375 C-18.5065564 22.12514511 -18.48186279 21.31669647 -18.4564209 20.48374939 C-18.43188945 16.16946408 -18.43188945 16.16946408 -20.55004883 12.58035278 C-22.06030864 11.38232413 -23.62201429 10.24990527 -25.1875 9.125 C-25.6875 5.9375 -25.6875 5.9375 -25.1875 3.125 C-19.90403558 -2.15846442 -7.16012471 0.02543992 0 0 Z " fill="#75C665" transform="translate(355.1875,219.875)"/>
<path d="M0 0 C2.20316969 -0.00980494 4.40544281 -0.04094862 6.60839844 -0.07226562 C8.01724713 -0.07878826 9.4261024 -0.08404162 10.83496094 -0.08789062 C12.73810059 -0.10190918 12.73810059 -0.10190918 14.6796875 -0.11621094 C18.11646722 0.25902825 19.47575352 0.89252417 21.94433594 3.24023438 C20.95433594 3.57023438 19.96433594 3.90023437 18.94433594 4.24023438 C17.72563665 6.74470953 17.72563665 6.74470953 16.94433594 9.24023438 C15.95433594 8.74523437 15.95433594 8.74523437 14.94433594 8.24023438 C12.76608632 8.15464319 10.58518339 8.13310026 8.40527344 8.14257812 C6.45234375 8.14741211 6.45234375 8.14741211 4.45996094 8.15234375 C3.07975195 8.16069972 1.69954362 8.16916467 0.31933594 8.17773438 C-1.06868332 8.18274936 -2.45670429 8.18731227 -3.84472656 8.19140625 C-7.24841538 8.20322461 -10.65201845 8.21970004 -14.05566406 8.24023438 C-13.68311469 11.50004142 -13.28974048 12.98743859 -11.02246094 15.43603516 C-8.132526 19.55641657 -8.52607773 23.19153229 -8.58691406 28.10742188 C-8.5798645 29.0603714 -8.57281494 30.01332092 -8.56555176 30.99514771 C-8.53611599 35.05957077 -8.55266983 39.12351209 -8.56494141 43.18798828 C-8.56732894 46.16142153 -8.54636561 49.13408444 -8.52441406 52.10742188 C-8.53573364 53.01805389 -8.54705322 53.92868591 -8.55871582 54.86691284 C-8.50512411 61.67028481 -7.12956579 66.16633265 -2.18066406 71.11523438 C4.6935951 74.75454805 15.94341724 74.42509256 23.33496094 72.67382812 C26.54643108 71.34036987 29.2161612 69.36214806 31.94433594 67.24023438 C32.60433594 67.24023438 33.26433594 67.24023438 33.94433594 67.24023438 C34.54246094 67.85898437 35.14058594 68.47773438 35.75683594 69.11523438 C40.84474711 74.05777666 46.86142387 73.71889303 53.60839844 73.62695312 C58.38062602 73.07373236 59.98264047 71.96350867 62.94433594 68.24023438 C63.88869943 66.07492269 63.88869943 66.07492269 63.94433594 64.24023438 C62.62433594 63.58023438 61.30433594 62.92023438 59.94433594 62.24023438 C60.93433594 61.58023438 61.92433594 60.92023438 62.94433594 60.24023438 C62.94433594 61.23023438 62.94433594 62.22023438 62.94433594 63.24023438 C63.39808594 62.74523437 63.85183594 62.25023437 64.31933594 61.74023438 C65.94433594 60.24023438 65.94433594 60.24023438 67.94433594 60.24023438 C68.27433594 61.89023437 68.60433594 63.54023438 68.94433594 65.24023438 C67.95433594 65.73523438 67.95433594 65.73523438 66.94433594 66.24023438 C66.94433594 68.55023438 66.94433594 70.86023438 66.94433594 73.24023438 C78.82433594 73.57023437 90.70433594 73.90023437 102.94433594 74.24023438 C102.94433594 74.57023437 102.94433594 74.90023437 102.94433594 75.24023438 C92.05433594 75.24023438 81.16433594 75.24023438 69.94433594 75.24023438 C69.61433594 76.23023438 69.28433594 77.22023438 68.94433594 78.24023438 C87.25933594 78.73523438 87.25933594 78.73523438 105.94433594 79.24023438 C105.94433594 79.57023437 105.94433594 79.90023437 105.94433594 80.24023438 C100.32097658 80.28969559 94.69774404 80.32598305 89.07421875 80.35009766 C87.16143589 80.36015128 85.24866839 80.37379611 83.3359375 80.39111328 C80.58557342 80.4153896 77.83541266 80.42672388 75.08496094 80.43554688 C74.23065491 80.44586945 73.37634888 80.45619202 72.49615479 80.46682739 C71.69562683 80.46697845 70.89509888 80.46712952 70.0703125 80.46728516 C69.36859924 80.47172638 68.66688599 80.4761676 67.94390869 80.48074341 C65.61438049 80.20054726 64.02499115 79.284939 61.94433594 78.24023438 C60.59311086 78.86984776 59.26209836 79.54329505 57.94433594 80.24023438 C50.31611526 80.97999885 43.28840801 80.59104238 36.12792969 77.79882812 C32.27506976 76.81321279 28.98634088 78.2284977 25.22558594 79.27929688 C20.62012533 80.43930267 16.17690075 80.60763796 11.44433594 80.61523438 C10.64125 80.63972656 9.83816406 80.66421875 9.01074219 80.68945312 C2.16923224 80.72271817 -3.06417321 78.98615508 -8.14941406 74.31835938 C-8.61347656 73.71507812 -9.07753906 73.11179687 -9.55566406 72.49023438 C-10.04035156 71.87664062 -10.52503906 71.26304687 -11.02441406 70.63085938 C-11.36472656 70.17195313 -11.70503906 69.71304688 -12.05566406 69.24023438 C-12.76529297 69.8203125 -12.76529297 69.8203125 -13.48925781 70.41210938 C-23.97375344 78.66890515 -33.13353896 80.4290816 -46.24316406 80.49023438 C-47.8722168 80.52117187 -47.8722168 80.52117187 -49.53417969 80.55273438 C-58.52481656 80.59593263 -66.66362074 79.44505326 -74.18066406 74.17773438 C-74.92574219 73.67113281 -75.67082031 73.16453125 -76.43847656 72.64257812 C-76.97214844 72.17980469 -77.50582031 71.71703125 -78.05566406 71.24023438 C-78.05566406 70.58023438 -78.05566406 69.92023438 -78.05566406 69.24023438 C-78.71566406 69.24023438 -79.37566406 69.24023438 -80.05566406 69.24023438 C-80.30316406 69.83835937 -80.55066406 70.43648438 -80.80566406 71.05273438 C-83.76728127 76.23556448 -89.20589462 77.70646785 -94.60986328 79.42871094 C-100.60140652 80.83978432 -106.49341331 80.7380526 -112.61816406 80.61523438 C-113.87435547 80.61394531 -115.13054687 80.61265625 -116.42480469 80.61132812 C-125.63261335 80.52226818 -125.63261335 80.52226818 -129.05566406 78.24023438 C-128.21793457 78.25594482 -127.38020508 78.27165527 -126.51708984 78.2878418 C-123.41229529 78.33893444 -120.30771475 78.37656671 -117.20263672 78.4050293 C-115.19647032 78.42755688 -113.1904988 78.46567008 -111.18457031 78.50390625 C-109.92773438 78.51357422 -108.67089844 78.52324219 -107.37597656 78.53320312 C-105.6321167 78.5567688 -105.6321167 78.5567688 -103.85302734 78.58081055 C-102.92989746 78.46842041 -102.00676758 78.35603027 -101.05566406 78.24023438 C-100.39566406 77.25023437 -99.73566406 76.26023437 -99.05566406 75.24023438 C-100.37566406 74.91023438 -101.69566406 74.58023438 -103.05566406 74.24023438 C-102.22035156 74.12808594 -102.22035156 74.12808594 -101.36816406 74.01367188 C-93.62354052 72.67929417 -88.84726607 69.31815453 -83.61816406 63.55273438 C-81.73454851 59.5594694 -81.48843973 56.20184306 -81.32910156 51.82617188 C-80.91118264 47.87385295 -79.24075119 45.51786506 -77.05566406 42.24023438 C-76.06566406 42.24023438 -75.07566406 42.24023438 -74.05566406 42.24023438 C-74.71566406 40.59023437 -75.37566406 38.94023437 -76.05566406 37.24023438 C-77.04566406 37.57023437 -78.03566406 37.90023437 -79.05566406 38.24023438 C-78.72566406 36.26023438 -78.39566406 34.28023437 -78.05566406 32.24023438 C-77.39566406 32.24023438 -76.73566406 32.24023438 -76.05566406 32.24023438 C-76.05566406 31.58023438 -76.05566406 30.92023438 -76.05566406 30.24023438 C-75.39566406 29.91023438 -74.73566406 29.58023438 -74.05566406 29.24023438 C-73.58667443 26.42424947 -73.58667443 26.42424947 -73.43066406 23.17773438 C-73.35589844 22.07300781 -73.28113281 20.96828125 -73.20410156 19.83007812 C-73.15511719 18.97542969 -73.10613281 18.12078125 -73.05566406 17.24023438 C-72.72566406 17.24023438 -72.39566406 17.24023438 -72.05566406 17.24023438 C-72.02988281 18.09746094 -72.00410156 18.9546875 -71.97753906 19.83789062 C-71.56296067 28.19541408 -70.88471087 33.29856854 -64.93066406 39.42773438 C-61.56985158 41.54650746 -58.13882367 42.82637041 -54.43847656 44.24023438 C-51.46206802 45.48935009 -49.26734803 46.88110481 -47.05566406 49.24023438 C-47.05566406 50.56023437 -47.05566406 51.88023437 -47.05566406 53.24023438 C-49.98158006 54.70319238 -51.81183754 54.68546547 -55.05566406 54.24023438 C-57.21420885 52.41808618 -58.43751137 50.61987069 -60.05566406 48.24023438 C-60.05566406 47.58023438 -60.05566406 46.92023438 -60.05566406 46.24023438 C-63.47106685 44.13844804 -66.07817821 43.67202211 -70.05566406 44.24023438 C-73.15656846 45.92193084 -73.15656846 45.92193084 -75.05566406 49.24023438 C-76.11408372 54.70304552 -75.77240459 59.73918232 -73.11816406 64.67773438 C-69.57736208 69.60055879 -64.55477335 71.30420694 -58.87988281 72.82226562 C-46.52020204 74.65143 -33.90894119 74.16687294 -22.68066406 68.55273438 C-18.46523865 64.83914532 -16.42435762 61.12350081 -15.70800781 55.52148438 C-15.52709292 49.79513466 -16.02180862 45.23141591 -19.05566406 40.24023438 C-23.7535949 35.26116752 -29.023735 32.61770776 -35.30566406 30.11523438 C-45.13817988 26.17906647 -45.13817988 26.17906647 -47.05566406 22.24023438 C-46.64540765 17.82997796 -46.64540765 17.82997796 -45.05566406 16.24023438 C-39.73720564 15.77775973 -39.73720564 15.77775973 -37.30566406 17.42773438 C-35.21239086 20.46298052 -34.21399311 23.76524724 -33.05566406 27.24023438 C-31.4499774 26.95705511 -29.84614359 26.66335646 -28.24316406 26.36523438 C-27.34984375 26.2028125 -26.45652344 26.04039062 -25.53613281 25.87304688 C-22.8283856 25.32834989 -22.8283856 25.32834989 -20.05566406 23.24023438 C-19.69068372 20.34415038 -19.69068372 20.34415038 -19.86816406 17.11523438 C-19.89523438 16.01953125 -19.92230469 14.92382812 -19.95019531 13.79492188 C-19.985 12.951875 -20.01980469 12.10882813 -20.05566406 11.24023438 C-20.71566406 11.24023438 -21.37566406 11.24023438 -22.05566406 11.24023438 C-22.22839844 10.59570312 -22.40113281 9.95117188 -22.57910156 9.28710938 C-23.98549034 6.83577556 -23.98549034 6.83577556 -27.53222656 6.63085938 C-28.91423706 6.56441656 -30.29734216 6.51830917 -31.68066406 6.49023438 C-32.38707031 6.46058594 -33.09347656 6.4309375 -33.82128906 6.40039062 C-35.56546454 6.32968081 -37.31057233 6.28269403 -39.05566406 6.24023438 C-39.05566406 5.91023437 -39.05566406 5.58023438 -39.05566406 5.24023438 C-34.10566406 5.24023438 -29.15566406 5.24023438 -24.05566406 5.24023438 C-23.39566406 3.92023438 -22.73566406 2.60023438 -22.05566406 1.24023438 C-14.8072021 -0.22498351 -7.37263405 0.01988126 0 0 Z " fill="#124318" transform="translate(265.0556640625,213.759765625)"/>
<path d="M0 0 C2.43045893 1.04754664 4.32004626 2.20379091 6.4140625 3.80859375 C8.10775399 5.21201519 8.10775399 5.21201519 11 6 C13.15625583 5.27878844 13.15625583 5.27878844 15.375 4.125 C26.44189539 -1.31337128 42.03142113 -0.34998425 53.609375 3.078125 C56.89437551 4.3448899 59.27507692 5.76416567 62 8 C62.598125 8.45375 63.19625 8.9075 63.8125 9.375 C65.55054016 11.75337074 65.68005856 14.12052705 66 17 C64.68 17.66 63.36 18.32 62 19 C61.64808594 18.52949219 61.29617188 18.05898437 60.93359375 17.57421875 C56.618575 12.13256324 52.70558796 9.79924446 45.8125 8.3125 C34.78933978 7.40896228 21.92665054 6.44668031 13 14 C10.57869669 17.63195496 10.78977215 19.38349348 10.875 23.6875 C10.89304687 24.86699219 10.91109375 26.04648438 10.9296875 27.26171875 C10.95289063 28.16535156 10.97609375 29.06898438 11 30 C10.34 30 9.68 30 9 30 C9 30.66 9 31.32 9 32 C8.195625 32.268125 7.39125 32.53625 6.5625 32.8125 C5.2940625 33.4003125 5.2940625 33.4003125 4 34 C3.67 34.99 3.34 35.98 3 37 C1.02 37 -0.96 37 -3 37 C-2.21625 36.236875 -1.4325 35.47375 -0.625 34.6875 C3.8978103 30.05700374 4.41619511 26.80072638 4.5 20.5625 C4.54125 19.79873047 4.5825 19.03496094 4.625 18.24804688 C4.65609117 16.01531243 4.58241808 14.15708316 4 12 C-0.58236511 7.73067437 -4.37593901 7.39798985 -10.37109375 7.59375 C-14.15902478 8.17910636 -16.06584425 9.59248759 -19 12 C-19.66 12 -20.32 12 -21 12 C-21.28875 12.639375 -21.5775 13.27875 -21.875 13.9375 C-23 16 -23 16 -25 17 C-25.33 14.03 -25.66 11.06 -26 8 C-28.97 7.505 -28.97 7.505 -32 7 C-30.68 6.67 -29.36 6.34 -28 6 C-28.33 5.01 -28.66 4.02 -29 3 C-34.94 2.67 -40.88 2.34 -47 2 C-47 1.67 -47 1.34 -47 1 C-43.10418244 0.97088997 -39.208393 0.95316413 -35.3125 0.9375 C-34.20970703 0.92912109 -33.10691406 0.92074219 -31.97070312 0.91210938 C-30.3706543 0.90727539 -30.3706543 0.90727539 -28.73828125 0.90234375 C-27.75899658 0.89710693 -26.77971191 0.89187012 -25.77075195 0.88647461 C-23 1 -23 1 -20.29248047 1.56298828 C-14.28717236 2.70777013 -6.87657172 -0.84609206 0 0 Z " fill="#104617" transform="translate(391,213)"/>
<path d="M0 0 C3.18242396 4.77363594 3.11794272 9.66061149 3.2109375 15.28125 C3.23929687 16.45300781 3.26765625 17.62476563 3.296875 18.83203125 C3.34895506 21.27718989 3.39322724 23.72252732 3.4296875 26.16796875 C3.460625 27.33972656 3.4915625 28.51148438 3.5234375 29.71875 C3.5531665 31.31106445 3.5531665 31.31106445 3.58349609 32.93554688 C4.20024432 37.47330995 5.69300693 40.87972022 9.1875 43.875 C11.41351713 46.48481319 11.75835744 48.56291572 11.57421875 51.97265625 C10.44141028 55.9721637 7.41672619 57.90692918 4 60 C-2.76261071 63.76489882 -10.40437786 64.29848603 -17.8203125 62.203125 C-21.90839876 60.65370455 -25.05139463 59.29827972 -28 56 C-30.64525803 56.95523207 -32.81123085 57.85699307 -35.0625 59.5625 C-39.13495228 62.58399685 -43.63162586 62.16339993 -48.5625 62.1875 C-49.23474609 62.19974609 -49.90699219 62.21199219 -50.59960938 62.22460938 C-54.29878237 62.23562975 -55.83971933 62.10685378 -59 60 C-55.72640933 57.81760622 -54.77896981 57.81591226 -51 57.75 C-43.24567362 57.17331703 -36.61936434 53.93879902 -31.4375 48.125 C-30.963125 47.42375 -30.48875 46.7225 -30 46 C-29.34 46 -28.68 46 -28 46 C-26.74614893 47.65817261 -25.69438377 49.40335253 -24.609375 51.17578125 C-21.90234045 54.24419177 -18.9257401 55.79326868 -14.828125 56.2331543 C-12.41962926 56.29441691 -10.03300361 56.26239006 -7.625 56.1875 C-6.79355469 56.17396484 -5.96210938 56.16042969 -5.10546875 56.14648438 C-3.07002934 56.11139059 -1.03492709 56.05759228 1 56 C1 55.34 1 54.68 1 54 C2 53 3 52 4 51 C4.33 50.01 4.66 49.02 5 48 C4.21625 47.7525 3.4325 47.505 2.625 47.25 C0 46 0 46 -1.25 44.25 C-2.99055392 39.02833823 -3.11951828 33.87957109 -3.09765625 28.4140625 C-3.0962413 27.71227875 -3.09482635 27.010495 -3.09336853 26.28744507 C-3.0878129 24.06658496 -3.07526892 21.84582916 -3.0625 19.625 C-3.05747926 18.11067855 -3.05291736 16.5963555 -3.04882812 15.08203125 C-3.03785807 11.38798748 -3.02062449 7.69400394 -3 4 C-2.01 3.67 -1.02 3.34 0 3 C0 2.01 0 1.02 0 0 Z " fill="#0A4512" transform="translate(458,231)"/>
<path d="M0 0 C2.20316969 -0.00980494 4.40544281 -0.04094862 6.60839844 -0.07226562 C8.01724713 -0.07878826 9.4261024 -0.08404162 10.83496094 -0.08789062 C12.1037207 -0.09723633 13.37248047 -0.10658203 14.6796875 -0.11621094 C18.11646722 0.25902825 19.47575352 0.89252417 21.94433594 3.24023438 C20.95433594 3.57023438 19.96433594 3.90023437 18.94433594 4.24023438 C17.72563665 6.74470953 17.72563665 6.74470953 16.94433594 9.24023438 C16.28433594 8.91023437 15.62433594 8.58023438 14.94433594 8.24023438 C12.76608632 8.15464319 10.58518339 8.13310026 8.40527344 8.14257812 C7.10332031 8.14580078 5.80136719 8.14902344 4.45996094 8.15234375 C3.07975195 8.16069972 1.69954362 8.16916467 0.31933594 8.17773438 C-1.06868332 8.18274936 -2.45670429 8.18731227 -3.84472656 8.19140625 C-7.24841538 8.20322461 -10.65201845 8.21970004 -14.05566406 8.24023438 C-13.44116409 11.57846395 -12.71005578 14.26232929 -11.05566406 17.24023438 C-11.71566406 17.24023438 -12.37566406 17.24023438 -13.05566406 17.24023438 C-13.38566406 17.90023437 -13.71566406 18.56023437 -14.05566406 19.24023438 C-17.61121962 21.24023438 -17.61121962 21.24023438 -19.05566406 21.24023438 C-19.55066406 16.29023438 -19.55066406 16.29023438 -20.05566406 11.24023438 C-20.71566406 11.24023438 -21.37566406 11.24023438 -22.05566406 11.24023438 C-22.22839844 10.59570312 -22.40113281 9.95117188 -22.57910156 9.28710938 C-23.98549034 6.83577556 -23.98549034 6.83577556 -27.53222656 6.63085938 C-28.91423706 6.56441656 -30.29734216 6.51830917 -31.68066406 6.49023438 C-32.38707031 6.46058594 -33.09347656 6.4309375 -33.82128906 6.40039062 C-35.56546454 6.32968081 -37.31057233 6.28269403 -39.05566406 6.24023438 C-39.05566406 5.91023437 -39.05566406 5.58023438 -39.05566406 5.24023438 C-34.10566406 5.24023438 -29.15566406 5.24023438 -24.05566406 5.24023438 C-23.39566406 3.92023438 -22.73566406 2.60023438 -22.05566406 1.24023438 C-14.8072021 -0.22498351 -7.37263405 0.01988126 0 0 Z " fill="#1A4D1D" transform="translate(265.0556640625,213.759765625)"/>
<path d="M0 0 C0.33 0 0.66 0 1 0 C1.02505615 1.31194336 1.0501123 2.62388672 1.07592773 3.97558594 C1.17010671 8.84352367 1.27030194 13.71132221 1.37231445 18.57910156 C1.41562358 20.68583927 1.45730153 22.79261117 1.49731445 24.89941406 C1.55511427 27.92783919 1.61878096 30.95609285 1.68359375 33.984375 C1.70030624 34.92617615 1.71701874 35.86797729 1.73423767 36.83831787 C1.7641555 38.15923431 1.7641555 38.15923431 1.79467773 39.50683594 C1.81799416 40.66599518 1.81799416 40.66599518 1.84178162 41.84857178 C2.00018514 44.00251749 2.41218206 45.92563438 3 48 C2.01 48.33 1.02 48.66 0 49 C-0.66 47.68 -1.32 46.36 -2 45 C-3.98 45.495 -3.98 45.495 -6 46 C-5.8453125 47.85625 -5.8453125 47.85625 -5.6875 49.75 C-5.71584711 52.96456182 -5.77485534 53.72232158 -7.875 56.3125 C-12.07610645 58.58109748 -16.38964414 59.81831656 -21 61 C-21 60.34 -21 59.68 -21 59 C-23.80747455 58.2204542 -26.42029808 57.8289851 -29.328125 57.68359375 C-30.52695313 57.62075195 -30.52695313 57.62075195 -31.75 57.55664062 C-32.575 57.51732422 -33.4 57.47800781 -34.25 57.4375 C-35.51070312 57.37272461 -35.51070312 57.37272461 -36.796875 57.30664062 C-38.86440671 57.20091457 -40.93218281 57.09998705 -43 57 C-43 56.67 -43 56.34 -43 56 C-41.88882813 55.96261719 -40.77765625 55.92523438 -39.6328125 55.88671875 C-23.72169181 55.37082004 -23.72169181 55.37082004 -10 48 C-8.8233507 45.94387562 -7.84862585 43.90141249 -6.95703125 41.70703125 C-6 40 -6 40 -3 39 C-2.01 39.495 -2.01 39.495 -1 40 C-0.67 26.8 -0.34 13.6 0 0 Z M-24 56 C-23 58 -23 58 -23 58 Z " fill="#17421B" transform="translate(255,232)"/>
<path d="M0 0 C3.125 0.25 3.125 0.25 4.875 1.4375 C6.96827321 4.47274615 7.96667095 7.77501286 9.125 11.25 C12.425 10.92 15.725 10.59 19.125 10.25 C18.795 11.24 18.465 12.23 18.125 13.25 C19.09729848 15.1448204 19.09729848 15.1448204 20.5625 16.9375 C21.03558594 17.56011719 21.50867188 18.18273437 21.99609375 18.82421875 C22.36863281 19.29472656 22.74117187 19.76523438 23.125 20.25 C24.115 19.59 25.105 18.93 26.125 18.25 C26.125 21.25 26.125 21.25 24.625 22.9375 C24.13 23.370625 23.635 23.80375 23.125 24.25 C22.72700195 23.86473145 22.32900391 23.47946289 21.91894531 23.08251953 C17.2870248 18.83153955 12.68138644 16.43803591 6.875 14.125 C-2.95751582 10.18883209 -2.95751582 10.18883209 -4.875 6.25 C-4.32861876 0.37640163 -4.32861876 0.37640163 0 0 Z " fill="#1E4C23" transform="translate(222.875,229.75)"/>
<path d="M0 0 C0.33 0.99 0.66 1.98 1 3 C1.45375 2.505 1.9075 2.01 2.375 1.5 C4 0 4 0 6 0 C6.33 1.65 6.66 3.3 7 5 C6.01 5.495 6.01 5.495 5 6 C5 8.31 5 10.62 5 13 C16.88 13.33 28.76 13.66 41 14 C41 14.33 41 14.66 41 15 C30.11 15 19.22 15 8 15 C7.67 15.99 7.34 16.98 7 18 C25.315 18.495 25.315 18.495 44 19 C44 19.33 44 19.66 44 20 C38.37664064 20.04946121 32.7534081 20.08574868 27.12988281 20.10986328 C25.21709996 20.1199169 23.30433245 20.13356173 21.39160156 20.15087891 C18.64123748 20.17515522 15.89107672 20.1864895 13.140625 20.1953125 C12.28631897 20.20563507 11.43201294 20.21595764 10.55181885 20.22659302 C9.75129089 20.22674408 8.95076294 20.22689514 8.12597656 20.22705078 C7.07340668 20.23371262 7.07340668 20.23371262 5.99957275 20.24050903 C3.65777931 19.95883762 2.09547665 19.05343273 0 18 C-2.33203812 17.9222654 -4.66839059 17.91032272 -7 18 C-5.59523838 13.08333432 -2.84628232 11.19159597 1 8 C1.94436349 5.83468832 1.94436349 5.83468832 2 4 C0.68 3.34 -0.64 2.68 -2 2 C-1.34 1.34 -0.68 0.68 0 0 Z " fill="#1B5220" transform="translate(327,274)"/>
<path d="M0 0 C1.74216797 0.02707031 1.74216797 0.02707031 3.51953125 0.0546875 C4.84017578 0.08949219 4.84017578 0.08949219 6.1875 0.125 C6.1875 0.455 6.1875 0.785 6.1875 1.125 C0.2475 1.62 0.2475 1.62 -5.8125 2.125 C-5.3175 3.115 -5.3175 3.115 -4.8125 4.125 C-5.1425 4.785 -5.4725 5.445 -5.8125 6.125 C-2.8425 6.125 0.1275 6.125 3.1875 6.125 C3.1875 6.455 3.1875 6.785 3.1875 7.125 C2.20910156 7.16367188 2.20910156 7.16367188 1.2109375 7.203125 C-4.76142542 7.59071197 -8.09501446 8.46894871 -12.8125 12.125 C-13.4725 12.125 -14.1325 12.125 -14.8125 12.125 C-15.10125 12.764375 -15.39 13.40375 -15.6875 14.0625 C-16.8125 16.125 -16.8125 16.125 -18.8125 17.125 C-19.1425 14.155 -19.4725 11.185 -19.8125 8.125 C-22.7825 7.63 -22.7825 7.63 -25.8125 7.125 C-24.4925 6.795 -23.1725 6.465 -21.8125 6.125 C-22.1425 5.135 -22.4725 4.145 -22.8125 3.125 C-28.7525 2.795 -34.6925 2.465 -40.8125 2.125 C-40.8125 1.795 -40.8125 1.465 -40.8125 1.125 C-36.91668244 1.09588997 -33.020893 1.07816413 -29.125 1.0625 C-28.02220703 1.05412109 -26.91941406 1.04574219 -25.78320312 1.03710938 C-24.1831543 1.03227539 -24.1831543 1.03227539 -22.55078125 1.02734375 C-21.57149658 1.02210693 -20.59221191 1.01687012 -19.58325195 1.01147461 C-16.8125 1.125 -16.8125 1.125 -14.10302734 1.68920898 C-9.75427729 2.51659321 -4.79286257 -0.09682551 0 0 Z " fill="#1D5121" transform="translate(384.8125,212.875)"/>
<path d="M0 0 C2.5 1 2.5 1 5 2 C7.32597511 2.3813074 9.65912158 2.72460254 12 3 C12 3.33 12 3.66 12 4 C9.03 4 6.06 4 3 4 C3 5.32 3 6.64 3 8 C3.66 8 4.32 8 5 8 C5 8.66 5 9.32 5 10 C2.03 9.505 2.03 9.505 -1 9 C-1 13.29 -1 17.58 -1 22 C-1.33 22 -1.66 22 -2 22 C-2.33 18.04 -2.66 14.08 -3 10 C-6.11785113 10.64644661 -6.11785113 10.64644661 -7 13 C-7.23029956 15.37123246 -7.41119942 17.74741943 -7.5625 20.125 C-7.64628906 21.40632813 -7.73007812 22.68765625 -7.81640625 24.0078125 C-7.90728516 25.48894531 -7.90728516 25.48894531 -8 27 C-8.33 27 -8.66 27 -9 27 C-9 18.09 -9 9.18 -9 0 C-5.88089111 -1.55955444 -3.36157873 -0.62673502 0 0 Z " fill="#104314" transform="translate(374,247)"/>
<path d="M0 0 C1.74120117 0.00676758 1.74120117 0.00676758 3.51757812 0.01367188 C6.36593934 0.02539353 9.21419222 0.0418024 12.0625 0.0625 C11.7325 1.3825 11.4025 2.7025 11.0625 4.0625 C1.14840781 7.00458721 -10.71093457 6.21770926 -20.9375 6.0625 C-20.6075 4.4125 -20.2775 2.7625 -19.9375 1.0625 C-13.29708878 -0.16149452 -6.73528303 -0.04977753 0 0 Z " fill="#06350B" transform="translate(351.9375,214.9375)"/>
<path d="M0 0 C0 0.66 0 1.32 0 2 C-0.66 2 -1.32 2 -2 2 C-2 2.66 -2 3.32 -2 4 C-1.34 4.33 -0.68 4.66 0 5 C-12.87 5 -25.74 5 -39 5 C-38.34 3.68 -37.68 2.36 -37 1 C-32.37355886 0.85680426 -27.74709399 0.71441061 -23.12060547 0.57275391 C-21.54735653 0.52447088 -19.97411425 0.47597028 -18.40087891 0.42724609 C-16.13706153 0.35717215 -13.8732212 0.28788561 -11.609375 0.21875 C-10.90818542 0.19687622 -10.20699585 0.17500244 -9.48455811 0.15246582 C-6.32029134 0.05653508 -3.16626361 0 0 0 Z " fill="#07360C" transform="translate(372,288)"/>
<path d="M0 0 C2.45449095 3.68173642 2.69560229 6.72333408 2 11 C0.3125 13.5625 0.3125 13.5625 -2 15 C-4.80008242 14.93170531 -6.41313899 14.34402197 -8.8125 12.9375 C-10.74426185 9.78567803 -10.66441897 6.58338321 -10 3 C-7.2113161 -0.43222634 -4.2487037 -0.55417874 0 0 Z " fill="#083D13" transform="translate(89,255)"/>
<path d="M0 0 C2.4375 0.5625 2.4375 0.5625 4.25 2.6875 C5.61860391 6.00096209 5.96597787 8.01414858 5.4375 11.5625 C3.43023131 14.38754482 2.28878167 15.39639626 -1.125 16.0625 C-3.5625 15.5625 -3.5625 15.5625 -5.375 14 C-7.02209365 10.61912357 -7.02683455 8.27717641 -6.5625 4.5625 C-4.56901037 1.68301498 -3.41968274 0.75066207 0 0 Z " fill="#093F13" transform="translate(425.5625,253.4375)"/>
<path d="M0 0 C1.0828125 0.15339844 2.165625 0.30679687 3.28125 0.46484375 C8.67337423 1.13885928 14.07348656 1.34529703 19.5 1.5625 C21.01980469 1.62727539 21.01980469 1.62727539 22.5703125 1.69335938 C25.0467679 1.79849192 27.52330749 1.90063837 30 2 C29.34 3.32 28.68 4.64 28 6 C24.10418244 6.02911003 20.208393 6.04683587 16.3125 6.0625 C15.20970703 6.07087891 14.10691406 6.07925781 12.97070312 6.08789062 C11.3706543 6.09272461 11.3706543 6.09272461 9.73828125 6.09765625 C8.75899658 6.10289307 7.77971191 6.10812988 6.77075195 6.11352539 C4.07530428 6.00308543 1.62454361 5.60534166 -1 5 C-1 4.34 -1 3.68 -1 3 C-1.99 2.67 -2.98 2.34 -4 2 C-2.68 2 -1.36 2 0 2 C0 1.34 0 0.68 0 0 Z " fill="#08370C" transform="translate(136,287)"/>
<path d="M0 0 C0.66 0.66 1.32 1.32 2 2 C-0.31 2 -2.62 2 -5 2 C-5.33 2.99 -5.66 3.98 -6 5 C-5.34 5.33 -4.68 5.66 -4 6 C-5.794375 6.5878125 -5.794375 6.5878125 -7.625 7.1875 C-12.79363286 9.11199096 -16.11460415 12.11460415 -20 16 C-20.28875 15.360625 -20.5775 14.72125 -20.875 14.0625 C-21.82823451 11.84793921 -21.82823451 11.84793921 -24 11 C-22.48516419 6.45549256 -18.93767768 4.35097634 -15 2 C-10.21383985 -0.18498616 -5.20945098 -0.70848533 0 0 Z " fill="#204C22" transform="translate(213,214)"/>
<path d="M0 0 C1.32257813 0.71736328 1.32257813 0.71736328 2.671875 1.44921875 C7.77157857 3.99561076 11.7528049 4.85791202 17.421875 5.13671875 C17.751875 6.78671875 18.081875 8.43671875 18.421875 10.13671875 C10.11131431 10.70550237 2.44198745 10.12793428 -4.3125 4.7578125 C-5.703125 3.38671875 -5.703125 3.38671875 -7.578125 1.13671875 C-4.5991823 -0.43311976 -3.26333702 -1.09272346 0 0 Z " fill="#0F3E14" transform="translate(435.578125,283.86328125)"/>
<path d="M0 0 C0.33 0 0.66 0 1 0 C0.96519531 1.71896484 0.96519531 1.71896484 0.9296875 3.47265625 C0.91091521 5.0025976 0.89271659 6.53254606 0.875 8.0625 C0.85824219 8.81466797 0.84148437 9.56683594 0.82421875 10.34179688 C0.79178057 14.08840719 0.96108866 17.33840354 2.0703125 20.93359375 C3 24 3 24 2 26 C-0.502338 25.65484993 -1.76958668 25.21928224 -3.6171875 23.4609375 C-5.56386788 19.99650631 -5.39887654 16.737759 -5.3125 12.875 C-5.31572266 12.14667969 -5.31894531 11.41835938 -5.32226562 10.66796875 C-5.26736111 5.26736111 -5.26736111 5.26736111 -3 3 C-2.01 3 -1.02 3 0 3 C0 2.01 0 1.02 0 0 Z " fill="#0A3810" transform="translate(391,260)"/>
<path d="M0 0 C5.52308901 1.62010611 10.53958521 3.20864743 15 7 C15.875 9.75 15.875 9.75 16 12 C12.75846834 14.1610211 11.76307099 14.64247553 8 14 C5.9375 11.75 5.9375 11.75 4 9 C3.2575 8.34 2.515 7.68 1.75 7 C0 5 0 5 -0.25 2.25 C-0.1675 1.5075 -0.085 0.765 0 0 Z " fill="#134918" transform="translate(137,255)"/>
<path d="M0 0 C0.22212255 2.74951693 0.42815588 5.49865612 0.625 8.25 C0.68945312 9.02730469 0.75390625 9.80460937 0.8203125 10.60546875 C1.30707097 17.72431144 1.30707097 17.72431144 -1 21 C-2.9375 20.625 -2.9375 20.625 -5 20 C-6.50945463 16.98109074 -6.30648821 13.87286494 -6.375 10.5625 C-6.41238281 9.88123047 -6.44976562 9.19996094 -6.48828125 8.49804688 C-6.5234375 6.50390625 -6.5234375 6.50390625 -6 3 C-2.25742574 0 -2.25742574 0 0 0 Z " fill="#08380E" transform="translate(372,256)"/>
<path d="M0 0 C2.32891212 3.49336818 2.23551143 4.86007865 2.1953125 8.98046875 C2.18564453 10.72553711 2.18564453 10.72553711 2.17578125 12.50585938 C2.15902344 13.72080078 2.14226562 14.93574219 2.125 16.1875 C2.11597656 17.41404297 2.10695313 18.64058594 2.09765625 19.90429688 C2.07406017 22.93639295 2.04113841 25.96809938 2 29 C1.01 29.33 0.02 29.66 -1 30 C-1.88873597 26.90049377 -2.18543782 24.01495633 -2.31640625 20.796875 C-2.35830078 19.8171875 -2.40019531 18.8375 -2.44335938 17.828125 C-2.48267578 16.81234375 -2.52199219 15.7965625 -2.5625 14.75 C-2.60568359 13.71875 -2.64886719 12.6875 -2.69335938 11.625 C-2.79925682 9.0834613 -2.90133443 6.54182804 -3 4 C-2.01 3.67 -1.02 3.34 0 3 C0 2.01 0 1.02 0 0 Z " fill="#063C0D" transform="translate(458,231)"/>
<path d="M0 0 C3.75059803 0.10999608 7.50020344 0.24059869 11.25 0.375 C12.31347656 0.4059375 13.37695312 0.436875 14.47265625 0.46875 C16.00986328 0.52675781 16.00986328 0.52675781 17.578125 0.5859375 C18.52075195 0.6173584 19.46337891 0.6487793 20.43457031 0.68115234 C23.04835429 1.00600977 24.74353034 1.67676162 27 3 C27 3.66 27 4.32 27 5 C22.93751511 5.02909769 18.87505714 5.04683174 14.8125 5.0625 C13.08676758 5.07506836 13.08676758 5.07506836 11.32617188 5.08789062 C10.21435547 5.09111328 9.10253906 5.09433594 7.95703125 5.09765625 C6.93585205 5.10289307 5.91467285 5.10812988 4.86254883 5.11352539 C2.13098384 5.00519467 -0.34169374 4.61706868 -3 4 C-2.01 3.67 -1.02 3.34 0 3 C0 2.01 0 1.02 0 0 Z " fill="#08340C" transform="translate(207,288)"/>
<path d="M0 0 C0.33 1.65 0.66 3.3 1 5 C0.071875 5.433125 -0.85625 5.86625 -1.8125 6.3125 C-4.47184073 7.72038627 -6.08105905 8.76123556 -8 11 C-8.556875 10.608125 -9.11375 10.21625 -9.6875 9.8125 C-10.450625 9.544375 -11.21375 9.27625 -12 9 C-14.74832154 10.28184562 -14.74832154 10.28184562 -17 12 C-17 9 -17 9 -15 6.625 C-5.25974319 -1.89772471 -5.25974319 -1.89772471 0 0 Z " fill="#154518" transform="translate(140,216)"/>
<path d="M0 0 C0.33 0 0.66 0 1 0 C1.02505615 1.31194336 1.0501123 2.62388672 1.07592773 3.97558594 C1.17010671 8.84352367 1.27030194 13.71132221 1.37231445 18.57910156 C1.41562358 20.68583927 1.45730153 22.79261117 1.49731445 24.89941406 C1.55511427 27.92783919 1.61878096 30.95609285 1.68359375 33.984375 C1.70030624 34.92617615 1.71701874 35.86797729 1.73423767 36.83831787 C1.75418289 37.71892883 1.77412811 38.59953979 1.79467773 39.50683594 C1.81022202 40.27960876 1.8257663 41.05238159 1.84178162 41.84857178 C2.00018514 44.00251749 2.41218206 45.92563438 3 48 C1.515 48.495 1.515 48.495 0 49 C-0.66 47.68 -1.32 46.36 -2 45 C-3.98 45.495 -3.98 45.495 -6 46 C-6.33 47.32 -6.66 48.64 -7 50 C-7.99 49.67 -8.98 49.34 -10 49 C-9.40917986 47.51545194 -8.80187345 46.03745649 -8.1875 44.5625 C-7.85105469 43.73878906 -7.51460937 42.91507812 -7.16796875 42.06640625 C-6 40 -6 40 -3 39 C-2.34 39.33 -1.68 39.66 -1 40 C-0.67 26.8 -0.34 13.6 0 0 Z " fill="#226122" transform="translate(255,232)"/>
<path d="M0 0 C2.71381831 2.96626652 4.72353105 5.17059315 6 9 C6.66 8.67 7.32 8.34 8 8 C8 9.32 8 10.64 8 12 C7.34 12 6.68 12 6 12 C5.34 13.32 4.68 14.64 4 16 C3.77213542 13.94921875 3.54427083 11.8984375 3.31640625 9.84765625 C3.18113386 7.98859771 3.18113386 7.98859771 2 7 C1.01 8.32 0.02 9.64 -1 11 C-1.61875 10.05125 -2.2375 9.1025 -2.875 8.125 C-4.81970969 5.05554891 -4.81970969 5.05554891 -7 3 C-7 2.34 -7 1.68 -7 1 C-7.66 0.34 -8.32 -0.32 -9 -1 C-5.21147807 -2.0523672 -3.24644951 -2.33338559 0 0 Z " fill="#0C3F11" transform="translate(181,217)"/>
<path d="M0 0 C-0.33 0.99 -0.66 1.98 -1 3 C-0.34 3 0.32 3 1 3 C1.99 3.33 2.98 3.66 4 4 C-1.07193551 7.38129034 -7.07154619 6.4596217 -13 6 C-15.68662727 5.26689824 -17.56967385 4.3887578 -20 3 C-17.53721199 1.768606 -15.7204945 1.92840804 -13 2 C-13 1.67 -13 1.34 -13 1 C-11.39602723 0.83147753 -9.7918131 0.66525114 -8.1875 0.5 C-7.29417969 0.4071875 -6.40085937 0.314375 -5.48046875 0.21875 C-3 0 -3 0 0 0 Z " fill="#0E3F13" transform="translate(322,288)"/>
<path d="M0 0 C5.94 0 11.88 0 18 0 C18 0.66 18 1.32 18 2 C18.99 1.67 19.98 1.34 21 1 C21 1.99 21 2.98 21 4 C17.56257082 4.05802698 14.12526747 4.09360486 10.6875 4.125 C9.71103516 4.14175781 8.73457031 4.15851563 7.72851562 4.17578125 C6.79072266 4.18222656 5.85292969 4.18867188 4.88671875 4.1953125 C4.02264404 4.20578613 3.15856934 4.21625977 2.26831055 4.22705078 C0 4 0 4 -3 2 C-1.35 2 0.3 2 2 2 C1.34 1.34 0.68 0.68 0 0 Z " fill="#08350C" transform="translate(268,289)"/>
<path d="M0 0 C0.33 0 0.66 0 1 0 C1.33 11.55 1.66 23.1 2 35 C3.32 35 4.64 35 6 35 C5 38 5 38 2 40 C2 40.99 2 41.98 2 43 C0.68 42.67 -0.64 42.34 -2 42 C-2 42.99 -2 43.98 -2 45 C-3.32 44.34 -4.64 43.68 -6 43 C-4.515 42.505 -4.515 42.505 -3 42 C-0.84115576 37.29119682 -0.66375406 32.63526712 -0.5859375 27.5390625 C-0.56657135 26.74849457 -0.5472052 25.95792664 -0.5272522 25.1434021 C-0.46783947 22.63737517 -0.42122573 20.13130135 -0.375 17.625 C-0.33678487 15.91794957 -0.29773111 14.21091769 -0.2578125 12.50390625 C-0.16216989 8.33608956 -0.07799885 4.1681827 0 0 Z " fill="#5FB250" transform="translate(337,237)"/>
<path d="M0 0 C0.66 0.33 1.32 0.66 2 1 C2 1.66 2 2.32 2 3 C4.64 3.66 7.28 4.32 10 5 C9.34 6.32 8.68 7.64 8 9 C12.29 9.33 16.58 9.66 21 10 C21 10.33 21 10.66 21 11 C5.56373651 11.90446856 5.56373651 11.90446856 -0.58203125 7.38671875 C-2 6 -2 6 -4 3 C-3.01 3 -2.02 3 -1 3 C-0.67 2.01 -0.34 1.02 0 0 Z " fill="#0F4317" transform="translate(394,283)"/>
<path d="M0 0 C4.46989738 4.16721141 5.83861661 8.56755464 6.23583984 14.5546875 C6.33111004 18.70457741 6.26235786 22.85033243 6.1875 27 C6.17242741 28.45701743 6.15874355 29.91404993 6.14648438 31.37109375 C6.11367903 34.91437925 6.06203907 38.45709171 6 42 C5.67 42 5.34 42 5 42 C4.97494385 41.21351074 4.9498877 40.42702148 4.92407227 39.61669922 C4.80767134 36.03598506 4.68514513 32.4555055 4.5625 28.875 C4.52318359 27.6375 4.48386719 26.4 4.44335938 25.125 C4.40146484 23.92617187 4.35957031 22.72734375 4.31640625 21.4921875 C4.27974854 20.39245605 4.24309082 19.29272461 4.20532227 18.15966797 C4.00316521 15.04870884 3.56710106 12.06355662 3 9 C-0.0745356 9.7763932 -0.0745356 9.7763932 -2 12 C-2.33 10.35 -2.66 8.7 -3 7 C-1.68 6.34 -0.36 5.68 1 5 C0.67 3.35 0.34 1.7 0 0 Z " fill="#48714A" transform="translate(456,225)"/>
<path d="M0 0 C6.93 0 13.86 0 21 0 C21 0.33 21 0.66 21 1 C16.71 1 12.42 1 8 1 C8 1.66 8 2.32 8 3 C8.99 3.33 9.98 3.66 11 4 C2.585 4.495 2.585 4.495 -6 5 C-6.33 3.68 -6.66 2.36 -7 1 C-4.69 1 -2.38 1 0 1 C0 0.67 0 0.34 0 0 Z " fill="#093B0C" transform="translate(213,214)"/>
<path d="M0 0 C1.27230469 0.00902344 2.54460937 0.01804688 3.85546875 0.02734375 C5.31919922 0.04474609 5.31919922 0.04474609 6.8125 0.0625 C6.8125 1.0525 6.8125 2.0425 6.8125 3.0625 C6.1525 3.0625 5.4925 3.0625 4.8125 3.0625 C5.1425 4.0525 5.4725 5.0425 5.8125 6.0625 C1.5225 5.7325 -2.7675 5.4025 -7.1875 5.0625 C-7.1875 4.4025 -7.1875 3.7425 -7.1875 3.0625 C-8.1775 2.4025 -9.1675 1.7425 -10.1875 1.0625 C-6.62704823 -0.12431726 -3.74941663 -0.03439832 0 0 Z " fill="#083B0E" transform="translate(386.1875,213.9375)"/>
<path d="M0 0 C-0.33 0.99 -0.66 1.98 -1 3 C-0.34 3.33 0.32 3.66 1 4 C-2.96881629 5.86451971 -6.13928459 6.2568867 -10.5078125 6.265625 C-11.74144531 6.26820313 -12.97507813 6.27078125 -14.24609375 6.2734375 C-15.52613281 6.26570313 -16.80617187 6.25796875 -18.125 6.25 C-19.41277344 6.25773437 -20.70054687 6.26546875 -22.02734375 6.2734375 C-23.25839844 6.27085937 -24.48945313 6.26828125 -25.7578125 6.265625 C-27.44608154 6.26224121 -27.44608154 6.26224121 -29.16845703 6.25878906 C-32 6 -32 6 -35 4 C-33.74340576 4.02356567 -33.74340576 4.02356567 -32.46142578 4.04760742 C-29.35663123 4.09870007 -26.25205069 4.13633234 -23.14697266 4.16479492 C-21.14080626 4.18732251 -19.13483474 4.2254357 -17.12890625 4.26367188 C-15.87207031 4.27333984 -14.61523438 4.28300781 -13.3203125 4.29296875 C-11.57645264 4.31653442 -11.57645264 4.31653442 -9.79736328 4.34057617 C-8.41266846 4.17199097 -8.41266846 4.17199097 -7 4 C-6.34 3.01 -5.68 2.02 -5 1 C-6.32 0.67 -7.64 0.34 -9 0 C-5.62182575 -0.84454356 -3.32534757 -1.10844919 0 0 Z " fill="#225527" transform="translate(171,288)"/>
<path d="M0 0 C4.95 1.98 4.95 1.98 10 4 C9.67 5.98 9.34 7.96 9 10 C5.53734736 9.6852134 3.41414041 9.29733158 0.5625 7.25 C0.046875 6.5075 -0.46875 5.765 -1 5 C-0.67 3.35 -0.34 1.7 0 0 Z " fill="#0E4216" transform="translate(92,283)"/>
<path d="M0 0 C4.62 0.99 9.24 1.98 14 3 C14 3.33 14 3.66 14 4 C11.03 4 8.06 4 5 4 C5 5.32 5 6.64 5 8 C5.66 8 6.32 8 7 8 C7 8.66 7 9.32 7 10 C4.03 9.505 4.03 9.505 1 9 C1 13.29 1 17.58 1 22 C0.67 22 0.34 22 0 22 C-0.0809313 19.39521117 -0.14045434 16.79293347 -0.1875 14.1875 C-0.22520508 13.08051758 -0.22520508 13.08051758 -0.26367188 11.95117188 C-0.33834499 6.45025238 -0.33834499 6.45025238 1.51171875 3.98828125 C2.00285156 3.66214844 2.49398438 3.33601562 3 3 C2.01 2.67 1.02 2.34 0 2 C0 1.34 0 0.68 0 0 Z " fill="#306435" transform="translate(372,247)"/>
<path d="M0 0 C2.475 0.495 2.475 0.495 5 1 C4.01 1.33 3.02 1.66 2 2 C2 2.99 2 3.98 2 5 C2.99 5.33 3.98 5.66 5 6 C4.34 8.31 3.68 10.62 3 13 C2.67 12.01 2.34 11.02 2 10 C1.34 10 0.68 10 0 10 C-0.17273438 9.35546875 -0.34546875 8.7109375 -0.5234375 8.046875 C-1.92982628 5.59554118 -1.92982628 5.59554118 -5.4765625 5.390625 C-6.858573 5.32418219 -8.2416781 5.2780748 -9.625 5.25 C-10.33140625 5.22035156 -11.0378125 5.19070312 -11.765625 5.16015625 C-13.50980047 5.08944643 -15.25490827 5.04245965 -17 5 C-17 4.67 -17 4.34 -17 4 C-12.05 4 -7.1 4 -2 4 C-1.34 2.68 -0.68 1.36 0 0 Z " fill="#225726" transform="translate(243,215)"/>
<path d="M0 0 C5.22117311 2.18560735 7.77424287 4.48394002 11 9 C11.8125 11.375 11.8125 11.375 12 13 C11.01 12.67 10.02 12.34 9 12 C9 11.01 9 10.02 9 9 C8.28972656 8.95101562 7.57945313 8.90203125 6.84765625 8.8515625 C5.92855469 8.77679688 5.00945312 8.70203125 4.0625 8.625 C3.14597656 8.55539063 2.22945313 8.48578125 1.28515625 8.4140625 C0.15400391 8.20910156 0.15400391 8.20910156 -1 8 C-1.33 7.34 -1.66 6.68 -2 6 C-1.01 5.67 -0.02 5.34 1 5 C0.67 3.35 0.34 1.7 0 0 Z " fill="#164C1E" transform="translate(108,217)"/>
<path d="M0 0 C0.66 0.99 1.32 1.98 2 3 C1.34 3 0.68 3 0 3 C0 3.99 0 4.98 0 6 C0.99 6.33 1.98 6.66 3 7 C0.60236815 9.39763185 -0.33273498 9.34280586 -3.625 9.625 C-4.44226563 9.69976562 -5.25953125 9.77453125 -6.1015625 9.8515625 C-6.72804687 9.90054687 -7.35453125 9.94953125 -8 10 C-7.9375 7.8125 -7.9375 7.8125 -7 5 C-4.8282781 3.06842043 -2.47398953 1.51798313 0 0 Z " fill="#164A1A" transform="translate(178,281)"/>
<path d="M0 0 C0 0.99 0 1.98 0 3 C-0.66 3.66 -1.32 4.32 -2 5 C-2.66 4.67 -3.32 4.34 -4 4 C-4 4.99 -4 5.98 -4 7 C-2.68 7.66 -1.36 8.32 0 9 C-1.65 9.33 -3.3 9.66 -5 10 C-5.33 9.34 -5.66 8.68 -6 8 C-6.66 8 -7.32 8 -8 8 C-8 7.34 -8 6.68 -8 6 C-9.12019531 6.02320313 -10.24039062 6.04640625 -11.39453125 6.0703125 C-12.86718084 6.08907237 -14.33983763 6.10727234 -15.8125 6.125 C-16.55048828 6.14175781 -17.28847656 6.15851563 -18.04882812 6.17578125 C-21.91246426 6.21074628 -23.70903668 6.19397555 -27 4 C-25.06447266 4.05220703 -25.06447266 4.05220703 -23.08984375 4.10546875 C-21.37240894 4.13362342 -19.65495993 4.16092177 -17.9375 4.1875 C-17.08994141 4.21263672 -16.24238281 4.23777344 -15.36914062 4.26367188 C-9.77466353 4.32847277 -5.96485412 3.61759241 -1 1 C-0.67 0.67 -0.34 0.34 0 0 Z " fill="#296C2B" transform="translate(294,283)"/>
<path d="M0 0 C2 3.75 2 3.75 2 6 C2.99 5.67 3.98 5.34 5 5 C5 6.65 5 8.3 5 10 C4.071875 9.62875 3.14375 9.2575 2.1875 8.875 C1.135625 8.58625 0.08375 8.2975 -1 8 C-1.99 8.66 -2.98 9.32 -4 10 C-5 9 -5 9 -5.0625 5.9375 C-5.041875 4.968125 -5.02125 3.99875 -5 3 C-3.35 2.67 -1.7 2.34 0 2 C0 1.34 0 0.68 0 0 Z " fill="#0F4114" transform="translate(253,275)"/>
<path d="M0 0 C4.75 0.75 4.75 0.75 7 3 C7.39764263 4.98821313 7.73775349 6.98944339 8 9 C6.02 9.99 6.02 9.99 4 11 C3.13341385 9.73760288 2.28207941 8.46472499 1.4375 7.1875 C0.72400391 6.12595703 0.72400391 6.12595703 -0.00390625 5.04296875 C-1 3 -1 3 0 0 Z " fill="#094011" transform="translate(449,221)"/>
<path d="M0 0 C1.1092904 3.32787119 1.01557588 4.6993784 0 8 C-3 10 -3 10 -6.1875 9.625 C-7.5796875 9.315625 -7.5796875 9.315625 -9 9 C-9 8.01 -9 7.02 -9 6 C-8.360625 5.731875 -7.72125 5.46375 -7.0625 5.1875 C-4.66868314 4.11332248 -4.66868314 4.11332248 -4 1 C-2 0 -2 0 0 0 Z " fill="#0B4011" transform="translate(299,281)"/>
<path d="M0 0 C-3.16240582 2.10827055 -4.50657469 2.33817465 -8.1875 2.625 C-9.08855469 2.69976562 -9.98960937 2.77453125 -10.91796875 2.8515625 C-11.60503906 2.90054688 -12.29210937 2.94953125 -13 3 C-13.33 2.34 -13.66 1.68 -14 1 C-14.99 0.34 -15.98 -0.32 -17 -1 C-11.03577817 -2.98807394 -5.74527607 -2.29811043 0 0 Z " fill="#09360C" transform="translate(154,217)"/>
<path d="M0 0 C-0.33 0.66 -0.66 1.32 -1 2 C-1.99 2.33 -2.98 2.66 -4 3 C-3.34 4.32 -2.68 5.64 -2 7 C-2.99 7.33 -3.98 7.66 -5 8 C-5 7.34 -5 6.68 -5 6 C-7.80747455 5.2204542 -10.42029808 4.8289851 -13.328125 4.68359375 C-14.12734375 4.64169922 -14.9265625 4.59980469 -15.75 4.55664062 C-16.9875 4.49766602 -16.9875 4.49766602 -18.25 4.4375 C-19.09046875 4.39431641 -19.9309375 4.35113281 -20.796875 4.30664062 C-22.86440671 4.20091457 -24.93218281 4.09998705 -27 4 C-27 3.67 -27 3.34 -27 3 C-25.85402344 2.95101563 -24.70804688 2.90203125 -23.52734375 2.8515625 C-21.99737465 2.77647199 -20.46742782 2.70092694 -18.9375 2.625 C-18.18533203 2.5940625 -17.43316406 2.563125 -16.65820312 2.53125 C-10.97716383 2.23613108 -5.54930813 0 0 0 Z M-8 3 C-7 5 -7 5 -7 5 Z " fill="#305F32" transform="translate(239,285)"/>
<path d="M0 0 C-0.66 0.66 -1.32 1.32 -2 2 C-2.64767793 4.57061311 -2.64767793 4.57061311 -3 7 C-6.91211733 5.84414715 -9.8745041 4.64465038 -13 2 C-12.01 2 -11.02 2 -10 2 C-10 1.34 -10 0.68 -10 0 C-2.25 -1.125 -2.25 -1.125 0 0 Z " fill="#1A551D" transform="translate(178,241)"/>
<path d="M0 0 C5 2 5 2 10 4 C9.34 4.66 8.68 5.32 8 6 C8.66 6.66 9.32 7.32 10 8 C2.62096774 7.39516129 2.62096774 7.39516129 -0.0625 5.6875 C-1 4 -1 4 -0.6875 1.8125 C-0.460625 1.214375 -0.23375 0.61625 0 0 Z " fill="#083B0E" transform="translate(55,285)"/>
<path d="M0 0 C0.33 0.66 0.66 1.32 1 2 C1.5775 2.28875 2.155 2.5775 2.75 2.875 C5.48810895 4.24405447 7.65467076 6.04555897 10 8 C7.3125 9.1875 7.3125 9.1875 4 10 C1.125 8.625 1.125 8.625 -1 7 C-0.34 6.67 0.32 6.34 1 6 C0.67 4.02 0.34 2.04 0 0 Z " fill="#0F3E13" transform="translate(189,277)"/>
<path d="M0 0 C0.33 0 0.66 0 1 0 C1.04898438 0.66386719 1.09796875 1.32773437 1.1484375 2.01171875 C1.71125812 8.7112236 1.71125812 8.7112236 4 15 C3.34 15 2.68 15 2 15 C0.99782936 18.58327753 0.99782936 18.58327753 2 22 C1.01 21.67 0.02 21.34 -1 21 C-0.979375 19.7625 -0.95875 18.525 -0.9375 17.25 C-0.93233319 14.3359175 -1.06984442 11.79046673 -2 9 C-1.34 9 -0.68 9 0 9 C0 6.03 0 3.06 0 0 Z " fill="#27582C" transform="translate(188,264)"/>
<path d="M0 0 C0.33 0 0.66 0 1 0 C1.61240935 7.2264303 1.61240935 7.2264303 -1.375 11 C-4 13 -4 13 -6 13 C-6 10.36 -6 7.72 -6 5 C-4.68 5.33 -3.36 5.66 -2 6 C-1.34 4.02 -0.68 2.04 0 0 Z " fill="#0F4414" transform="translate(468,277)"/>
<path d="M0 0 C0.33 0 0.66 0 1 0 C1 4.95 1 9.9 1 15 C0.67 14.34 0.34 13.68 0 13 C-1.32 13.33 -2.64 13.66 -4 14 C-3.39113665 8.82466155 -2.32121194 4.64242389 0 0 Z " fill="#09370B" transform="translate(254,259)"/>
<path d="M0 0 C1.66611905 -0.042721 3.33382885 -0.04063832 5 0 C6 1 6 1 6.0625 4.0625 C6.041875 5.031875 6.02125 6.00125 6 7 C4.35 7.33 2.7 7.66 1 8 C0.67 5.36 0.34 2.72 0 0 Z " fill="#06350B" transform="translate(462,275)"/>
<path d="M0 0 C0.96392528 2.99887865 1.35886391 5.08814875 0 8 C-2.5625 9.25 -2.5625 9.25 -5 10 C-5.75 7.75 -5.75 7.75 -6 5 C-4.15554062 2.71032629 -2.62637553 1.31318776 0 0 Z " fill="#144D1E" transform="translate(424,282)"/>
<path d="M0 0 C1.75 2.125 1.75 2.125 3 4 C2.01 4.33 1.02 4.66 0 5 C-0.99 4.01 -1.98 3.02 -3 2 C-3.33 2.99 -3.66 3.98 -4 5 C-4.99 4.34 -5.98 3.68 -7 3 C-7 2.34 -7 1.68 -7 1 C-7.66 0.34 -8.32 -0.32 -9 -1 C-5.24115217 -2.0441244 -3.25249956 -2.27674969 0 0 Z " fill="#134B18" transform="translate(181,217)"/>
<path d="M0 0 C-0.99 0.66 -1.98 1.32 -3 2 C-2.34 2.33 -1.68 2.66 -1 3 C-1 3.66 -1 4.32 -1 5 C-5.16138263 5.08159574 -8.9472484 4.98248524 -13 4 C-8.62340682 -0.37659318 -5.88808394 -0.39919213 0 0 Z " fill="#08380D" transform="translate(177,215)"/>
<path d="M0 0 C1.02480469 0.00322266 2.04960938 0.00644531 3.10546875 0.00976562 C4.16894531 0.01814453 5.23242188 0.02652344 6.328125 0.03515625 C7.40707031 0.03966797 8.48601562 0.04417969 9.59765625 0.04882812 C12.25786883 0.06059898 14.91796865 0.07704226 17.578125 0.09765625 C17.578125 0.42765625 17.578125 0.75765625 17.578125 1.09765625 C16.94720947 1.1227124 16.31629395 1.14776855 15.66625977 1.17358398 C12.82415675 1.28919762 9.98241417 1.41207941 7.140625 1.53515625 C5.65079102 1.59413086 5.65079102 1.59413086 4.13085938 1.65429688 C2.71450195 1.71713867 2.71450195 1.71713867 1.26953125 1.78125 C0.39498291 1.81790771 -0.47956543 1.85456543 -1.38061523 1.89233398 C-3.4146152 1.87946691 -3.4146152 1.87946691 -4.421875 3.09765625 C-5.94115538 3.16945589 -7.46354982 3.18157632 -8.984375 3.16015625 C-9.81066406 3.15113281 -10.63695313 3.14210937 -11.48828125 3.1328125 C-12.12636719 3.12121094 -12.76445313 3.10960937 -13.421875 3.09765625 C-8.85955255 0.65355494 -5.16929101 -0.02871828 0 0 Z " fill="#2A5A2B" transform="translate(81.421875,213.90234375)"/>
<path d="M0 0 C0.98484375 0.01804688 1.9696875 0.03609375 2.984375 0.0546875 C4.10585937 0.08949219 4.10585937 0.08949219 5.25 0.125 C5.25 0.455 5.25 0.785 5.25 1.125 C3.97125 1.24875 2.6925 1.3725 1.375 1.5 C-2.09790936 1.81542399 -2.09790936 1.81542399 -4.75 4.125 C-4.09 4.785 -3.43 5.445 -2.75 6.125 C-5.72 6.125 -8.69 6.125 -11.75 6.125 C-8.81248297 0.24996594 -6.34057225 -0.15096601 0 0 Z " fill="#164819" transform="translate(171.75,213.875)"/>
<path d="M0 0 C0.625 2.0625 0.625 2.0625 1 4 C-2.22791555 6.1519437 -3.28400809 6.20086443 -7 6 C-6.75 3.625 -6.75 3.625 -6 1 C-2.69333333 -1.34666667 -2.69333333 -1.34666667 0 0 Z " fill="#0E4416" transform="translate(419,287)"/>
<path d="M0 0 C0.33 0.66 0.66 1.32 1 2 C1.5775 1.649375 2.155 1.29875 2.75 0.9375 C5.35801776 -0.14917407 6.39417629 0.06934867 9 1 C8.835 1.61875 8.67 2.2375 8.5 2.875 C7.92365356 4.96063386 7.92365356 4.96063386 8 7 C3.56909529 5.79157144 1.01887244 4.48331435 -2 1 C-1.34 0.67 -0.68 0.34 0 0 Z " fill="#26542B" transform="translate(192,285)"/>
<path d="M0 0 C-0.99 0.495 -0.99 0.495 -2 1 C-2.65555119 3.52733235 -2.65555119 3.52733235 -3 6 C-6.45925163 4.7508258 -9.14693203 3.32472205 -12 1 C-8.00439392 -1.83022097 -4.57262677 -0.76210446 0 0 Z " fill="#205124" transform="translate(138,286)"/>
<path d="M0 0 C0.66 0.33 1.32 0.66 2 1 C2 2.32 2 3.64 2 5 C0.02 5.66 -1.96 6.32 -4 7 C-4 7.66 -4 8.32 -4 9 C-4.99 9 -5.98 9 -7 9 C-5.44499019 5.18315774 -2.96404505 2.80804268 0 0 Z " fill="#17481D" transform="translate(56,250)"/>
<path d="M0 0 C0.99 0.33 1.98 0.66 3 1 C-2.96583144 8.66742597 -2.96583144 8.66742597 -8 10 C-6.56854369 4.98990293 -4.17048478 2.89380576 0 0 Z " fill="#225324" transform="translate(130,218)"/>
<path d="M0 0 C2 2 2 2 2.375 4.875 C1.92491816 8.62568199 0.87398748 9.66488517 -2 12 C-3.35384615 5.72307692 -3.35384615 5.72307692 -1.5625 2.0625 C-1.046875 1.381875 -0.53125 0.70125 0 0 Z " fill="#24522D" transform="translate(378,279)"/>
<path d="M0 0 C0.66 0.66 1.32 1.32 2 2 C1.625 3.9375 1.625 3.9375 1 6 C1 6.99 1 7.98 1 9 C0.34 9.66 -0.32 10.32 -1 11 C-1.28875 10.360625 -1.5775 9.72125 -1.875 9.0625 C-2.82823451 6.84793921 -2.82823451 6.84793921 -5 6 C-3.63016497 2.83884224 -3.0109362 2.0072908 0 0 Z " fill="#225122" transform="translate(194,219)"/>
<path d="M0 0 C0.66 0.33 1.32 0.66 2 1 C0.25 6.75 0.25 6.75 -2 9 C-2.99 8.67 -3.98 8.34 -5 8 C-4.67 6.02 -4.34 4.04 -4 2 C-3.01 2 -2.02 2 -1 2 C-0.67 1.34 -0.34 0.68 0 0 Z " fill="#0D3A11" transform="translate(199,217)"/>
<path d="M0 0 C2.80417447 3.15469628 3.1061529 4.86003709 3 9 C3.99 10.485 3.99 10.485 5 12 C1.81657725 11.07848289 0.34283454 10.55151644 -1.4375 7.6875 C-2.11957165 4.42871324 -1.50011501 2.9168903 0 0 Z " fill="#174D1D" transform="translate(52,280)"/>
<path d="M0 0 C2.97 0.495 2.97 0.495 6 1 C6 1.66 6 2.32 6 3 C11.28 3.33 16.56 3.66 22 4 C22 4.33 22 4.66 22 5 C6.07061503 5.738041 6.07061503 5.738041 0 1 C0 0.67 0 0.34 0 0 Z " fill="#46734C" transform="translate(393,289)"/>
<path d="M0 0 C0.66 1.32 1.32 2.64 2 4 C1.34 4.66 0.68 5.32 0 6 C0.33 6.99 0.66 7.98 1 9 C0.0625 11.1875 0.0625 11.1875 -1 13 C-1.66 13 -2.32 13 -3 13 C-2.88557539 11.39504433 -2.75805306 9.79101881 -2.625 8.1875 C-2.55539063 7.29417969 -2.48578125 6.40085937 -2.4140625 5.48046875 C-2 3 -2 3 0 0 Z " fill="#1E4F21" transform="translate(48,259)"/>
<path d="M0 0 C1.4540625 0.0309375 1.4540625 0.0309375 2.9375 0.0625 C2.9375 0.3925 2.9375 0.7225 2.9375 1.0625 C1.57625 1.43375 1.57625 1.43375 0.1875 1.8125 C-3.40865344 3.19563594 -4.90933629 3.87262784 -7.0625 7.0625 C-7.68493052 10.38910346 -7.93353214 13.68354218 -8.0625 17.0625 C-8.3925 17.0625 -8.7225 17.0625 -9.0625 17.0625 C-9.84984859 7.07192127 -9.84984859 7.07192127 -6.625 2.9375 C-5.779375 2.31875 -4.93375 1.7 -4.0625 1.0625 C-3.0625 0.0625 -3.0625 0.0625 0 0 Z " fill="#BFCEBF" transform="translate(198.0625,256.9375)"/>
<path d="M0 0 C5.61 0 11.22 0 17 0 C15.02 0.99 15.02 0.99 13 2 C13.33 2.99 13.66 3.98 14 5 C12.35 4.67 10.7 4.34 9 4 C9.99 3.01 10.98 2.02 12 1 C8.04 1 4.08 1 0 1 C0 0.67 0 0.34 0 0 Z " fill="#05330A" transform="translate(149,214)"/>
<path d="M0 0 C2.64 0 5.28 0 8 0 C7.34 1.32 6.68 2.64 6 4 C2.04 4 -1.92 4 -6 4 C-6 3.67 -6 3.34 -6 3 C-4.02 2.67 -2.04 2.34 0 2 C0 1.34 0 0.68 0 0 Z " fill="#134C17" transform="translate(221,215)"/>
<path d="M0 0 C1.65 0 3.3 0 5 0 C5 0.99 5 1.98 5 3 C6.98 3 8.96 3 11 3 C11 3.33 11 3.66 11 4 C8.70858714 4.05384521 6.41681812 4.09272087 4.125 4.125 C2.21074219 4.15980469 2.21074219 4.15980469 0.2578125 4.1953125 C-3 4 -3 4 -5 2 C-3.02 2 -1.04 2 1 2 C0.67 1.34 0.34 0.68 0 0 Z " fill="#265A30" transform="translate(62,290)"/>
<path d="M0 0 C1.65 0 3.3 0 5 0 C4.34 0.66 3.68 1.32 3 2 C3.66 2.33 4.32 2.66 5 3 C5 3.66 5 4.32 5 5 C5.598125 4.79375 6.19625 4.5875 6.8125 4.375 C9 4 9 4 12 6 C8.7 6 5.4 6 2 6 C2 5.34 2 4.68 2 4 C1.34 4 0.68 4 0 4 C0 2.68 0 1.36 0 0 Z " fill="#08360D" transform="translate(377,251)"/>
<path d="M0 0 C1.32 0 2.64 0 4 0 C3.67 1.98 3.34 3.96 3 6 C0.0625 5.625 0.0625 5.625 -3 5 C-3.33 4.34 -3.66 3.68 -4 3 C-3.01 3 -2.02 3 -1 3 C-0.67 2.01 -0.34 1.02 0 0 Z " fill="#1E4D24" transform="translate(98,287)"/>
<path d="M0 0 C1.98 0.66 3.96 1.32 6 2 C5.01 2.66 4.02 3.32 3 4 C3.33 5.32 3.66 6.64 4 8 C2.02 7.34 0.04 6.68 -2 6 C-1.34 5.67 -0.68 5.34 0 5 C-0.33 4.01 -0.66 3.02 -1 2 C-0.67 1.34 -0.34 0.68 0 0 Z " fill="#205522" transform="translate(299,284)"/>
<path d="M0 0 C1.75098126 2.62647188 3.38731308 5.28775382 5 8 C3.68 8 2.36 8 1 8 C0.67 9.32 0.34 10.64 0 12 C-1.53166168 7.91556885 -0.63081652 4.20544343 0 0 Z " fill="#144A18" transform="translate(461,267)"/>
<path d="M0 0 C1.32 0.99 2.64 1.98 4 3 C3.67 3.99 3.34 4.98 3 6 C0.03 5.505 0.03 5.505 -3 5 C-3.33 4.01 -3.66 3.02 -4 2 C-3.01 2 -2.02 2 -1 2 C-0.67 1.34 -0.34 0.68 0 0 Z " fill="#0F4715" transform="translate(124,276)"/>
<path d="M0 0 C0.33 0 0.66 0 1 0 C1.33 3.63 1.66 7.26 2 11 C0.35 11 -1.3 11 -3 11 C-2.01 7.37 -1.02 3.74 0 0 Z " fill="#08380F" transform="translate(58,231)"/>
<path d="M0 0 C2 2 2 2 3 5 C3.66 4.67 4.32 4.34 5 4 C5 5.32 5 6.64 5 8 C4.34 8 3.68 8 3 8 C2.34 9.32 1.68 10.64 1 12 C0.45533613 7.915021 0 4.1274515 0 0 Z " fill="#336232" transform="translate(184,221)"/>
<path d="M0 0 C9.41002278 0.96355353 9.41002278 0.96355353 14 2 C14 2.33 14 2.66 14 3 C12.22925083 3.02705729 10.45838289 3.04642195 8.6875 3.0625 C7.70136719 3.07410156 6.71523438 3.08570313 5.69921875 3.09765625 C3 3 3 3 0 2 C0 1.34 0 0.68 0 0 Z " fill="#345F37" transform="translate(440,291)"/>
<path d="M0 0 C2.64 0.33 5.28 0.66 8 1 C8 1.33 8 1.66 8 2 C5 3 2 4 -1 5 C-1 4.34 -1 3.68 -1 3 C-1.99 2.67 -2.98 2.34 -4 2 C-2.68 2 -1.36 2 0 2 C0 1.34 0 0.68 0 0 Z " fill="#0E4012" transform="translate(136,287)"/>
<path d="M0 0 C1.625 2 1.625 2 3 4 C0.69 4.66 -1.62 5.32 -4 6 C-4.66 5.34 -5.32 4.68 -6 4 C-2.25 0 -2.25 0 0 0 Z " fill="#DEE6DE" transform="translate(187,283)"/>
<path d="M0 0 C0.66 0.33 1.32 0.66 2 1 C2 2.32 2 3.64 2 5 C-0.70879335 6.35439668 -3.00933268 6.06501451 -6 6 C-6 5.34 -6 4.68 -6 4 C-4.02 3.67 -2.04 3.34 0 3 C0 2.01 0 1.02 0 0 Z " fill="#234F29" transform="translate(216,262)"/>
<path d="M0 0 C0.99 0.99 1.98 1.98 3 3 C2.01 3 1.02 3 0 3 C-0.33 4.32 -0.66 5.64 -1 7 C-1.66 7 -2.32 7 -3 7 C-3.33 6.01 -3.66 5.02 -4 4 C-2.68 2.68 -1.36 1.36 0 0 Z " fill="#114417" transform="translate(244,238)"/>
<path d="M0 0 C3.96 0 7.92 0 12 0 C12 0.99 12 1.98 12 3 C7.45194365 3.17835515 4.1205746 2.99785435 0 1 C0 0.67 0 0.34 0 0 Z " fill="#08380B" transform="translate(302,290)"/>
<path d="M0 0 C0.66 0.33 1.32 0.66 2 1 C2 3.31 2 5.62 2 8 C0.02 8 -1.96 8 -4 8 C-3.2884375 7.13375 -3.2884375 7.13375 -2.5625 6.25 C-1.0515133 4.07417916 -0.45963849 2.57397552 0 0 Z " fill="#276A26" transform="translate(329,278)"/>
<path d="M0 0 C1.32 0 2.64 0 4 0 C3.67 1.98 3.34 3.96 3 6 C1.02 6.33 -0.96 6.66 -3 7 C-2.505 6.21625 -2.01 5.4325 -1.5 4.625 C0.16537965 2.21447673 0.16537965 2.21447673 0 0 Z " fill="#0A380F" transform="translate(179,281)"/>
<path d="M0 0 C2.64 0.33 5.28 0.66 8 1 C7.01 1.495 7.01 1.495 6 2 C6 2.99 6 3.98 6 5 C4.02 4.34 2.04 3.68 0 3 C0 2.01 0 1.02 0 0 Z " fill="#1B441C" transform="translate(231,241)"/>
<path d="M0 0 C0.33 0 0.66 0 1 0 C1 1.65 1 3.3 1 5 C1.66 5 2.32 5 3 5 C3.33 5.99 3.66 6.98 4 8 C1.03 7.505 1.03 7.505 -2 7 C-2.125 4.625 -2.125 4.625 -2 2 C-1.34 1.34 -0.68 0.68 0 0 Z " fill="#0A4012" transform="translate(248,222)"/>
<path d="M0 0 C1.65 0 3.3 0 5 0 C4.34 1.32 3.68 2.64 3 4 C1.35 4 -0.3 4 -2 4 C-2.33 3.34 -2.66 2.68 -3 2 C-2.01 2 -1.02 2 0 2 C0 1.34 0 0.68 0 0 Z " fill="#052E0A" transform="translate(161,289)"/>
<path d="M0 0 C2.475 0.99 2.475 0.99 5 2 C4.67 3.32 4.34 4.64 4 6 C2.35 6 0.7 6 -1 6 C-0.67 4.02 -0.34 2.04 0 0 Z " fill="#093D11" transform="translate(147,262)"/>
<path d="M0 0 C2.91517292 1.07401108 4.77810176 1.77810176 7 4 C6.625 6.125 6.625 6.125 6 8 C5.67 7.34 5.34 6.68 5 6 C4.34 5.67 3.68 5.34 3 5 C1.375 3.5625 1.375 3.5625 0 2 C0 1.34 0 0.68 0 0 Z " fill="#18561E" transform="translate(146,259)"/>
<path d="M0 0 C-0.99 1.98 -1.98 3.96 -3 6 C-3.66 6 -4.32 6 -5 6 C-5 4.68 -5 3.36 -5 2 C-5.99 1.34 -6.98 0.68 -8 0 C-2.25 -1.125 -2.25 -1.125 0 0 Z " fill="#2C5C31" transform="translate(242,241)"/>
<path d="M0 0 C-0.33 1.65 -0.66 3.3 -1 5 C-2.65 4.67 -4.3 4.34 -6 4 C-5.67 3.01 -5.34 2.02 -5 1 C-2 0 -2 0 0 0 Z " fill="#0A3E10" transform="translate(250,216)"/>
<path d="M0 0 C-0.33 2.31 -0.66 4.62 -1 7 C-1.268125 6.360625 -1.53625 5.72125 -1.8125 5.0625 C-2.88667752 2.66868314 -2.88667752 2.66868314 -6 2 C-6 1.34 -6 0.68 -6 0 C-3 -1 -3 -1 0 0 Z " fill="#325A35" transform="translate(208,257)"/>
<path d="M0 0 C0.66 0.33 1.32 0.66 2 1 C2 1.99 2 2.98 2 4 C1.34 4.66 0.68 5.32 0 6 C-2.125 5.625 -2.125 5.625 -4 5 C-4 4.34 -4 3.68 -4 3 C-2 1.375 -2 1.375 0 0 Z " fill="#06310C" transform="translate(159,233)"/>
<path d="M0 0 C1.65 0 3.3 0 5 0 C5 0.99 5 1.98 5 3 C4.34 2.67 3.68 2.34 3 2 C3 2.99 3 3.98 3 5 C2.01 4.67 1.02 4.34 0 4 C0 2.68 0 1.36 0 0 Z " fill="#0E3B13" transform="translate(462,275)"/>
<path d="M0 0 C1.32 0.66 2.64 1.32 4 2 C3.01 3.32 2.02 4.64 1 6 C0.01 5.67 -0.98 5.34 -2 5 C-2 4.34 -2 3.68 -2 3 C-1.34 3 -0.68 3 0 3 C0 2.01 0 1.02 0 0 Z " fill="#245026" transform="translate(261,285)"/>
<path d="M0 0 C0.33 0 0.66 0 1 0 C1.29296875 6.0546875 1.29296875 6.0546875 1 8 C0.01 8.66 -0.98 9.32 -2 10 C-2.17942163 6.05272412 -2.09350689 3.4019487 0 0 Z " fill="#2D5C2F" transform="translate(468,277)"/>
<path d="M0 0 C0.99 0.33 1.98 0.66 3 1 C2.67 1.99 2.34 2.98 2 4 C-0.31 4.33 -2.62 4.66 -5 5 C-4.34 4.67 -3.68 4.34 -3 4 C-2.67 3.34 -2.34 2.68 -2 2 C-1.34 2.33 -0.68 2.66 0 3 C0 2.01 0 1.02 0 0 Z " fill="#7BCC70" transform="translate(388,245)"/>
<path d="M0 0 C0.99 0.33 1.98 0.66 3 1 C3 1.66 3 2.32 3 3 C4.32 3.33 5.64 3.66 7 4 C7 4.99 7 5.98 7 7 C5.82780457 6.21654285 4.66236332 5.42297164 3.5 4.625 C2.8503125 4.18414062 2.200625 3.74328125 1.53125 3.2890625 C1.0259375 2.86367187 0.520625 2.43828125 0 2 C0 1.34 0 0.68 0 0 Z " fill="#6DBD5B" transform="translate(330,227)"/>
<path d="M0 0 C2.97 0.495 2.97 0.495 6 1 C5.67 2.98 5.34 4.96 5 7 C3.29115995 5.37660195 1.62553283 3.70680947 0 2 C0 1.34 0 0.68 0 0 Z " fill="#2D6133" transform="translate(398,218)"/>
<path d="M0 0 C1.98 0 3.96 0 6 0 C5.67 1.32 5.34 2.64 5 4 C3.68 4 2.36 4 1 4 C0.67 2.68 0.34 1.36 0 0 Z " fill="#07340A" transform="translate(206,215)"/>
<path d="M0 0 C2 1.8125 2 1.8125 4 4 C4 4.99 4 5.98 4 7 C3.01 7 2.02 7 1 7 C0.67 4.69 0.34 2.38 0 0 Z " fill="#134816" transform="translate(164,236)"/>
<path d="M0 0 C-1.3125 1.5 -1.3125 1.5 -3 3 C-3.99 3 -4.98 3 -6 3 C-6 2.01 -6 1.02 -6 0 C-3.50907189 -1.24546405 -2.58919267 -0.7767578 0 0 Z " fill="#7ECE6C" transform="translate(296,223)"/>
</svg>
